<svg width="12" height="13" viewBox="0 0 12 13" fill="none" xmlns="http://www.w3.org/2000/svg">
<path d="M11 1H9.5V0.5C9.5 0.367392 9.44732 0.240215 9.35355 0.146447C9.25979 0.0526784 9.13261 0 9 0C8.86739 0 8.74021 0.0526784 8.64645 0.146447C8.55268 0.240215 8.5 0.367392 8.5 0.5V1H3.5V0.5C3.5 0.367392 3.44732 0.240215 3.35355 0.146447C3.25979 0.0526784 3.13261 0 3 0C2.86739 0 2.74021 0.0526784 2.64645 0.146447C2.55268 0.240215 2.5 0.367392 2.5 0.5V1H1C0.734784 1 0.48043 1.10536 0.292893 1.29289C0.105357 1.48043 0 1.73478 0 2V12C0 12.2652 0.105357 12.5196 0.292893 12.7071C0.48043 12.8946 0.734784 13 1 13H11C11.2652 13 11.5196 12.8946 11.7071 12.7071C11.8946 12.5196 12 12.2652 12 12V2C12 1.73478 11.8946 1.48043 11.7071 1.29289C11.5196 1.10536 11.2652 1 11 1ZM3.25 10.5C3.10166 10.5 2.95666 10.456 2.83332 10.3736C2.70999 10.2912 2.61386 10.1741 2.55709 10.037C2.50032 9.89997 2.48547 9.74917 2.51441 9.60368C2.54335 9.4582 2.61478 9.32456 2.71967 9.21967C2.82456 9.11478 2.9582 9.04335 3.10368 9.01441C3.24917 8.98547 3.39997 9.00033 3.53701 9.05709C3.67406 9.11386 3.79119 9.20999 3.8736 9.33332C3.95601 9.45666 4 9.60166 4 9.75C4 9.94891 3.92098 10.1397 3.78033 10.2803C3.63968 10.421 3.44891 10.5 3.25 10.5ZM6 10.5C5.85166 10.5 5.70666 10.456 5.58332 10.3736C5.45999 10.2912 5.36386 10.1741 5.30709 10.037C5.25032 9.89997 5.23547 9.74917 5.26441 9.60368C5.29335 9.4582 5.36478 9.32456 5.46967 9.21967C5.57456 9.11478 5.7082 9.04335 5.85368 9.01441C5.99917 8.98547 6.14997 9.00033 6.28701 9.05709C6.42406 9.11386 6.54119 9.20999 6.6236 9.33332C6.70601 9.45666 6.75 9.60166 6.75 9.75C6.75 9.94891 6.67098 10.1397 6.53033 10.2803C6.38968 10.421 6.19891 10.5 6 10.5ZM6 8C5.85166 8 5.70666 7.95601 5.58332 7.8736C5.45999 7.79119 5.36386 7.67406 5.30709 7.53701C5.25032 7.39997 5.23547 7.24917 5.26441 7.10368C5.29335 6.9582 5.36478 6.82456 5.46967 6.71967C5.57456 6.61478 5.7082 6.54335 5.85368 6.51441C5.99917 6.48547 6.14997 6.50032 6.28701 6.55709C6.42406 6.61386 6.54119 6.70999 6.6236 6.83332C6.70601 6.95666 6.75 7.10166 6.75 7.25C6.75 7.44891 6.67098 7.63968 6.53033 7.78033C6.38968 7.92098 6.19891 8 6 8ZM8.75 10.5C8.60166 10.5 8.45666 10.456 8.33332 10.3736C8.20999 10.2912 8.11386 10.1741 8.05709 10.037C8.00033 9.89997 7.98547 9.74917 8.01441 9.60368C8.04335 9.4582 8.11478 9.32456 8.21967 9.21967C8.32456 9.11478 8.4582 9.04335 8.60368 9.01441C8.74917 8.98547 8.89997 9.00033 9.03701 9.05709C9.17406 9.11386 9.29119 9.20999 9.3736 9.33332C9.45601 9.45666 9.5 9.60166 9.5 9.75C9.5 9.94891 9.42098 10.1397 9.28033 10.2803C9.13968 10.421 8.94891 10.5 8.75 10.5ZM8.75 8C8.60166 8 8.45666 7.95601 8.33332 7.8736C8.20999 7.79119 8.11386 7.67406 8.05709 7.53701C8.00033 7.39997 7.98547 7.24917 8.01441 7.10368C8.04335 6.9582 8.11478 6.82456 8.21967 6.71967C8.32456 6.61478 8.4582 6.54335 8.60368 6.51441C8.74917 6.48547 8.89997 6.50032 9.03701 6.55709C9.17406 6.61386 9.29119 6.70999 9.3736 6.83332C9.45601 6.95666 9.5 7.10166 9.5 7.25C9.5 7.44891 9.42098 7.63968 9.28033 7.78033C9.13968 7.92098 8.94891 8 8.75 8ZM11 4H1V2H2.5V2.5C2.5 2.63261 2.55268 2.75979 2.64645 2.85355C2.74021 2.94732 2.86739 3 3 3C3.13261 3 3.25979 2.94732 3.35355 2.85355C3.44732 2.75979 3.5 2.63261 3.5 2.5V2H8.5V2.5C8.5 2.63261 8.55268 2.75979 8.64645 2.85355C8.74021 2.94732 8.86739 3 9 3C9.13261 3 9.25979 2.94732 9.35355 2.85355C9.44732 2.75979 9.5 2.63261 9.5 2.5V2H11V4Z" fill="#999999"/>
</svg>
