<svg width="301" height="300" viewBox="0 0 301 300" fill="none" xmlns="http://www.w3.org/2000/svg">
<path d="M109.563 259.806C125.481 269.4 136.837 265.417 141.184 257.723C149.591 242.845 177.545 212.419 221.845 202.136C280.516 188.516 268.263 152.353 232.196 133.376C196.128 114.399 169.159 88.1413 173.241 59.5905C177.323 31.0396 136.881 21.1972 118.896 76.1194C107.274 111.612 86.4457 121.121 73.1641 123.407C60.6464 125.561 46.9537 128.264 40.2765 139.068C32.1741 152.178 35.0014 165.44 68.9243 174.536C116.996 187.425 73.8842 238.299 109.563 259.806Z" fill="#F2F2F2"/>
<path d="M68.2049 197.598C68.8786 197.212 76.4818 193.993 114.306 211.627C114.196 211.777 114.149 211.848 114.149 211.848C114.149 211.848 74.827 225.091 67.1225 208.777C64.8218 203.92 65.4811 200.576 68.1392 197.636L68.2049 197.598Z" fill="#999999"/>
<path d="M195.335 204.271C187.117 211.18 174.23 216.194 161.795 209.526C163.76 208.27 165.79 206.977 167.86 205.639C180.348 197.615 191.347 202.984 195.335 204.271Z" fill="#999999"/>
<path d="M210.056 119.303C218.452 189.215 198.499 201.904 196.278 203.831C195.635 204.389 195.374 204.348 194.402 204.098L194.386 204.108C190.271 203.017 180.349 197.615 167.861 205.638C165.791 206.975 163.761 208.269 161.796 209.524C149.057 217.604 138.769 223.298 131.357 219.993C125.071 216.786 119.402 214.011 114.307 211.627C76.4819 193.993 68.8787 197.212 68.2051 197.597C68.9867 197.172 76.1572 193.197 85.8121 186.207C85.8449 186.189 85.8778 186.17 85.8848 186.144C98.7899 176.791 116.072 162.053 128.495 143.094C136.952 130.202 145.225 97.5186 161.188 91.1058C193.995 78.8673 208.694 105.082 210.056 119.303Z" fill="#CCCCCC"/>
<path d="M173.782 118.076C174.8 115.387 174.701 112.857 173.56 112.425C172.419 111.993 170.669 113.823 169.651 116.512C168.632 119.201 168.731 121.731 169.872 122.163C171.013 122.595 172.763 120.765 173.782 118.076Z" fill="white"/>
<path d="M194.669 121.508C195.391 118.724 195.018 116.22 193.838 115.913C192.657 115.607 191.114 117.615 190.393 120.399C189.671 123.182 190.043 125.687 191.224 125.993C192.405 126.299 193.947 124.291 194.669 121.508Z" fill="white"/>
<path d="M181.954 131.727C181.783 131.727 181.617 131.668 181.484 131.561C181.351 131.453 181.258 131.303 181.222 131.136C181.088 130.531 180.494 128.74 179.55 128.473C178.607 128.207 176.757 129.241 176.008 129.783C175.847 129.9 175.646 129.947 175.45 129.916C175.254 129.885 175.078 129.776 174.961 129.615C174.844 129.454 174.796 129.253 174.828 129.057C174.859 128.861 174.967 128.685 175.128 128.568C175.424 128.354 178.066 126.496 179.958 127.03C181.931 127.586 182.616 130.488 182.688 130.817C182.711 130.927 182.71 131.04 182.685 131.149C182.659 131.258 182.609 131.36 182.539 131.448C182.468 131.535 182.379 131.605 182.278 131.654C182.177 131.702 182.066 131.727 181.954 131.727H181.954Z" fill="white"/>
</svg>
