<svg width="16" height="16" viewBox="0 0 16 16" fill="none" xmlns="http://www.w3.org/2000/svg">
<path fill-rule="evenodd" clip-rule="evenodd" d="M8.00033 2C5.04551 2 2.66699 4.46862 2.66699 7.49261C2.66699 8.99384 3.25252 10.6021 4.1893 11.838C5.12394 13.071 6.46324 14 8.00033 14C9.53741 14 10.8767 13.071 11.8113 11.838C12.7481 10.6021 13.3337 8.99384 13.3337 7.49261C13.3337 4.46862 10.9551 2 8.00033 2ZM6.1108 7.07692C6.1108 6.02333 6.95677 5.16923 8.00033 5.16923C9.04388 5.16923 9.88985 6.02333 9.88985 7.07692C9.88985 8.13051 9.04388 8.98462 8.00033 8.98462C6.95677 8.98462 6.1108 8.13051 6.1108 7.07692ZM8.00033 5.90769C7.36073 5.90769 6.84223 6.43117 6.84223 7.07692C6.84223 7.72267 7.36073 8.24615 8.00033 8.24615C8.63992 8.24615 9.15842 7.72267 9.15842 7.07692C9.15842 6.43117 8.63992 5.90769 8.00033 5.90769Z" fill="#00A991"/>
</svg>
