<svg width="25" height="24" viewBox="0 0 25 24" fill="none" xmlns="http://www.w3.org/2000/svg">
<path d="M3.15688 8.84875C3.82953 6.13984 5.9775 4.04534 8.70204 3.44162L9.15591 3.34105C11.2081 2.88632 13.3349 2.88632 15.3871 3.34105L15.8409 3.44162C18.5655 4.04534 20.7134 6.13984 21.3861 8.84876C21.8999 10.9182 21.8999 13.0819 21.3861 15.1512C20.7134 17.8602 18.5655 19.9547 15.8409 20.5584L15.3871 20.659C13.3349 21.1137 11.2081 21.1137 9.15591 20.659L8.70204 20.5584C5.9775 19.9547 3.82953 17.8602 3.15688 15.1513C2.64302 13.0819 2.64302 10.9181 3.15688 8.84875Z" fill="white"/>
<path d="M4.57374 6.5004L10.354 10.63C11.501 11.4496 13.0419 11.4496 14.189 10.63L19.9692 6.5004M3.15688 15.1513C2.64302 13.0819 2.64302 10.9181 3.15688 8.84875C3.82953 6.13984 5.9775 4.04534 8.70204 3.44162L9.15591 3.34105C11.2081 2.88632 13.3349 2.88632 15.3871 3.34105L15.8409 3.44162C18.5655 4.04534 20.7134 6.13984 21.3861 8.84876C21.8999 10.9182 21.8999 13.0819 21.3861 15.1512C20.7134 17.8602 18.5655 19.9547 15.8409 20.5584L15.3871 20.659C13.3349 21.1137 11.2081 21.1137 9.15591 20.659L8.70204 20.5584C5.9775 19.9547 3.82953 17.8602 3.15688 15.1513Z" stroke="#494949" stroke-width="1.5" stroke-linecap="round"/>
</svg>
