<svg width="19" height="21" viewBox="0 0 19 21" fill="none" xmlns="http://www.w3.org/2000/svg">
<path d="M5.45459 17H13.4546L13.0546 17.6857C11.2546 20.7714 7.65459 20.7714 5.85459 17.6857L5.45459 17Z" fill="white"/>
<path d="M13.4546 2.35196C12.5799 1.51769 11.3939 1 10.0743 1H8.37143C5.427 1 3.14886 3.58064 3.51407 6.50234L3.59343 7.13719C3.73957 8.30631 3.31251 9.4741 2.44662 10.2731C1.2639 11.3645 0.935311 13.1016 1.63768 14.5496L1.74103 14.7627C2.4048 16.1311 3.79202 17 5.31292 17H13.5337C14.837 17 16.05 16.3342 16.7498 15.2347C17.7376 13.6826 17.476 11.6465 16.1279 10.3945L16.084 10.3538C15.8404 10.1275 15.6297 9.8738 15.4546 9.59985M5.45459 17L5.85459 17.6857C7.65459 20.7714 11.2546 20.7714 13.0546 17.6857L13.4546 17" stroke="#494949" stroke-width="1.5" stroke-linecap="round"/>
<path d="M16.4551 6C16.4551 7.10457 15.5596 8 14.4551 8C13.3505 8 12.4551 7.10457 12.4551 6C12.4551 4.89543 13.3505 4 14.4551 4C15.5596 4 16.4551 4.89543 16.4551 6Z" fill="#494949"/>
</svg>
