<svg width="25" height="24" viewBox="0 0 25 24" fill="none" xmlns="http://www.w3.org/2000/svg">
<path d="M3.27148 18.433C3.27148 16.4308 4.72633 14.7254 6.70352 14.4098L6.88162 14.3814C8.46484 14.1287 10.0781 14.1287 11.6614 14.3814L11.8394 14.4098C13.8166 14.7254 15.2715 16.4308 15.2715 18.433C15.2715 19.2984 14.5699 20 13.7045 20H4.83845C3.97304 20 3.27148 19.2984 3.27148 18.433Z" fill="white"/>
<path d="M12.7715 7.5C12.7715 9.433 11.2045 11 9.27148 11C7.33849 11 5.77148 9.433 5.77148 7.5C5.77148 5.567 7.33849 4 9.27148 4C11.2045 4 12.7715 5.567 12.7715 7.5Z" fill="white"/>
<path d="M3.27148 18.433C3.27148 16.4308 4.72633 14.7254 6.70352 14.4098L6.88162 14.3814C8.46484 14.1287 10.0781 14.1287 11.6614 14.3814L11.8394 14.4098C13.8166 14.7254 15.2715 16.4308 15.2715 18.433C15.2715 19.2984 14.5699 20 13.7045 20H4.83845C3.97304 20 3.27148 19.2984 3.27148 18.433Z" stroke="#494949" stroke-width="1.5"/>
<path d="M12.7715 7.5C12.7715 9.433 11.2045 11 9.27148 11C7.33849 11 5.77148 9.433 5.77148 7.5C5.77148 5.567 7.33849 4 9.27148 4C11.2045 4 12.7715 5.567 12.7715 7.5Z" stroke="#494949" stroke-width="1.5"/>
<path d="M15.2715 11C17.2045 11 18.7715 9.433 18.7715 7.5C18.7715 5.567 17.2045 4 15.2715 4M17.6614 20H19.7045C20.5699 20 21.2715 19.2984 21.2715 18.433C21.2715 16.4308 19.8166 14.7254 17.8394 14.4098V14.4098C17.7209 14.3909 17.6008 14.3814 17.4808 14.3814C17.161 14.3814 17.0617 14.3814 16.5127 14.3814" stroke="#494949" stroke-width="1.5" stroke-linecap="round"/>
</svg>
