<svg width="25" height="24" viewBox="0 0 25 24" fill="none" xmlns="http://www.w3.org/2000/svg">
<path d="M5.27148 19.1115C5.27148 16.6984 6.96881 14.643 9.27553 14.2627L9.4833 14.2284C11.3304 13.9239 13.2126 13.9239 15.0597 14.2284L15.2674 14.2627C17.5742 14.643 19.2715 16.6984 19.2715 19.1115C19.2715 20.1545 18.453 21 17.4434 21H7.09961C6.08997 21 5.27148 20.1545 5.27148 19.1115Z" fill="white"/>
<path d="M16.3548 6.9375C16.3548 9.11212 14.5267 10.875 12.2715 10.875C10.0163 10.875 8.18817 9.11212 8.18817 6.9375C8.18817 4.76288 10.0163 3 12.2715 3C14.5267 3 16.3548 4.76288 16.3548 6.9375Z" fill="white"/>
<path d="M5.27148 19.1115C5.27148 16.6984 6.96881 14.643 9.27553 14.2627L9.4833 14.2284C11.3304 13.9239 13.2126 13.9239 15.0597 14.2284L15.2674 14.2627C17.5742 14.643 19.2715 16.6984 19.2715 19.1115C19.2715 20.1545 18.453 21 17.4434 21H7.09961C6.08997 21 5.27148 20.1545 5.27148 19.1115Z" stroke="#494949" stroke-width="1.5"/>
<path d="M16.3548 6.9375C16.3548 9.11212 14.5267 10.875 12.2715 10.875C10.0163 10.875 8.18817 9.11212 8.18817 6.9375C8.18817 4.76288 10.0163 3 12.2715 3C14.5267 3 16.3548 4.76288 16.3548 6.9375Z" stroke="#494949" stroke-width="1.5"/>
</svg>
