<svg width="22" height="23" viewBox="0 0 22 23" fill="none" xmlns="http://www.w3.org/2000/svg">
<path d="M4.96855 1.83568C5.292 1.57692 5.34444 1.10495 5.08568 0.781506C4.82692 0.45806 4.35495 0.405619 4.03151 0.664376L1.53151 2.66438C1.20806 2.92313 1.15562 3.3951 1.41438 3.71855C1.67313 4.042 2.1451 4.09444 2.46855 3.83568L4.96855 1.83568Z" fill="#999999"/>
<path d="M17.9685 0.664376C17.6451 0.405619 17.1731 0.45806 16.9144 0.781506C16.6556 1.10495 16.7081 1.57692 17.0315 1.83568L19.5315 3.83568C19.855 4.09444 20.3269 4.042 20.5857 3.71855C20.8444 3.3951 20.792 2.92313 20.4685 2.66438L17.9685 0.664376Z" fill="#999999"/>
<path fill-rule="evenodd" clip-rule="evenodd" d="M11 1.25003C5.06294 1.25003 0.25 6.06297 0.25 12C0.25 17.9371 5.06294 22.75 11 22.75C16.9371 22.75 21.75 17.9371 21.75 12C21.75 6.06297 16.9371 1.25003 11 1.25003ZM11.75 8.00003C11.75 7.58581 11.4142 7.25003 11 7.25003C10.5858 7.25003 10.25 7.58581 10.25 8.00003L10.25 11.1894L9.53033 10.4697C9.23744 10.1768 8.76256 10.1768 8.46967 10.4697C8.17678 10.7626 8.17678 11.2375 8.46967 11.5304L9.96967 13.0304C10.6267 13.6873 11.75 13.222 11.75 12.2929L11.75 8.00003Z" fill="#999999"/>
</svg>
