<svg width="24" height="24" viewBox="0 0 24 24" fill="none" xmlns="http://www.w3.org/2000/svg">
<path d="M12.6 4.69925C12.522 4.7001 12.4447 4.68558 12.3723 4.65653C12.3 4.62747 12.2341 4.58446 12.1784 4.52993C12.1227 4.4754 12.0782 4.41043 12.0476 4.33873C12.017 4.26703 12.0008 4.19001 12 4.11205C12 1.84005 13.8816 5.4318e-05 16.1984 5.4318e-05C16.2764 -0.00100249 16.3539 0.0133709 16.4263 0.0423482C16.4987 0.0713255 16.5647 0.114335 16.6205 0.168904C16.6762 0.223473 16.7207 0.288525 16.7512 0.360321C16.7817 0.432116 16.7978 0.509239 16.7984 0.587254C16.7984 2.85925 14.9184 4.69925 12.6 4.69925Z" fill="#1C1B1B"/>
<path d="M12.5999 4.69925C12.5219 4.7001 12.4446 4.68558 12.3722 4.65653C12.2999 4.62747 12.234 4.58446 12.1783 4.52993C12.1226 4.4754 12.0781 4.41043 12.0475 4.33873C12.0169 4.26703 12.0007 4.19001 11.9999 4.11205C11.9999 1.84005 13.8815 5.4318e-05 16.1983 5.4318e-05C16.2763 -0.00100249 16.3538 0.0133709 16.4262 0.0423482C16.4986 0.0713255 16.5646 0.114335 16.6204 0.168904C16.6762 0.223473 16.7206 0.288525 16.7511 0.360321C16.7816 0.432116 16.7977 0.509239 16.7983 0.587254C16.7983 2.85925 14.9183 4.69925 12.5999 4.69925ZM21.3599 17.0689C21.5919 17.2385 21.6671 17.5489 21.5359 17.8017C19.4239 21.9393 17.7391 24.0001 16.1999 24.0001C15.4831 24.0001 14.7791 23.7729 14.0927 23.3313C13.6 23.015 13.0295 22.841 12.4442 22.8286C11.8589 22.8161 11.2815 22.9657 10.7759 23.2609C9.9439 23.7489 9.1519 24.0001 8.3999 24.0001C6.1359 24.0001 2.3999 17.1729 2.3999 13.4273C2.3999 9.42726 4.5423 6.37765 7.7999 6.37765C9.3327 6.37765 10.6559 6.59845 11.7679 7.04805C12.2383 7.23685 12.7711 7.22405 13.2303 7.00805C14.1327 6.58245 15.3231 6.37765 16.7983 6.37765C18.6015 6.37765 20.1743 7.25765 21.4799 8.96165C21.5271 9.0231 21.5615 9.0934 21.5811 9.1684C21.6007 9.24339 21.605 9.32154 21.5938 9.39823C21.5826 9.47491 21.5561 9.54858 21.516 9.61485C21.4758 9.68113 21.4227 9.73866 21.3599 9.78405C19.9023 10.8561 19.1999 12.0577 19.1999 13.4273C19.1999 14.7953 19.9023 15.9985 21.3599 17.0689Z" fill="#1C1B1B"/>
<path d="M21.3599 17.0691C21.5919 17.2387 21.6671 17.5491 21.5359 17.8019C19.4239 21.9395 17.7391 24.0003 16.1999 24.0003C15.4831 24.0003 14.7791 23.7731 14.0927 23.3315C13.6 23.0152 13.0295 22.8413 12.4442 22.8288C11.8589 22.8164 11.2815 22.966 10.7759 23.2611C9.9439 23.7491 9.1519 24.0003 8.3999 24.0003C6.1359 24.0003 2.3999 17.1731 2.3999 13.4275C2.3999 9.42753 4.5423 6.37793 7.7999 6.37793C9.3327 6.37793 10.6559 6.59873 11.7679 7.04833C12.2383 7.23713 12.7711 7.22433 13.2303 7.00833C14.1327 6.58273 15.3231 6.37793 16.7983 6.37793C18.6015 6.37793 20.1743 7.25793 21.4799 8.96193C21.5271 9.02338 21.5615 9.09368 21.5811 9.16867C21.6007 9.24366 21.605 9.32181 21.5938 9.3985C21.5826 9.47519 21.5561 9.54885 21.516 9.61513C21.4758 9.6814 21.4227 9.73894 21.3599 9.78433C19.9023 10.8563 19.1999 12.0579 19.1999 13.4275C19.1999 14.7955 19.9023 15.9987 21.3599 17.0691Z" fill="#1C1B1B"/>
</svg>
