<svg width="24" height="24" viewBox="0 0 24 24" fill="none" xmlns="http://www.w3.org/2000/svg">
<path d="M15.6507 2.56782C14.2873 -0.855939 9.71266 -0.855942 8.34934 2.56782L7.63471 4.36252C7.35016 5.07712 6.73011 5.56304 6.0214 5.64677L4.02716 5.88239C0.655991 6.28069 -0.689228 10.6598 1.73471 13.1052L3.42793 14.8133C3.92816 15.318 4.15309 16.0666 4.01514 16.7946L3.60633 18.9523C2.92757 22.5347 6.62694 25.331 9.60783 23.334L10.9452 22.4381C11.5907 22.0057 12.4093 22.0057 13.0548 22.4381L14.3922 23.334C17.3731 25.331 21.0724 22.5347 20.3937 18.9523L19.9849 16.7946C19.8469 16.0666 20.0718 15.318 20.5721 14.8133L22.2653 13.1052C24.6892 10.6598 23.344 6.28069 19.9728 5.88239L17.9786 5.64677C17.2699 5.56304 16.6498 5.07712 16.3653 4.36252L15.6507 2.56782Z" fill="#7C47E7"/>
</svg>
