<svg width="15" height="12" viewBox="0 0 15 12" fill="none" xmlns="http://www.w3.org/2000/svg">
<path d="M1.35547 7.86902C1.56347 7.95902 1.79147 8.00502 2.02214 8.00035C2.2818 8.00579 2.53888 7.94794 2.77119 7.83179C3.00349 7.71563 3.20402 7.54468 3.35547 7.33368C3.50692 7.12269 3.70745 6.95173 3.93975 6.83558C4.17205 6.71943 4.42914 6.66158 4.6888 6.66702C4.94847 6.66158 5.20555 6.71943 5.43785 6.83558C5.67015 6.95173 5.87069 7.12269 6.02214 7.33368C6.17358 7.54468 6.37412 7.71563 6.60642 7.83179C6.83872 7.94794 7.0958 8.00579 7.35547 8.00035C7.61513 8.00579 7.87222 7.94794 8.10452 7.83179C8.33682 7.71563 8.53736 7.54468 8.6888 7.33368C8.84025 7.12269 9.04078 6.95173 9.27308 6.83558C9.50539 6.71943 9.76247 6.66158 10.0221 6.66702C10.2818 6.66158 10.5389 6.71943 10.7712 6.83558C11.0035 6.95173 11.204 7.12269 11.3555 7.33368C11.5069 7.54468 11.7075 7.71563 11.9398 7.83179C12.1721 7.94794 12.4291 8.00579 12.6888 8.00035C12.9221 8.00502 13.1501 7.95902 13.3555 7.86902M1.35547 11.3337H13.3555V6.00033C13.3555 5.46989 13.1448 4.96118 12.7697 4.58611C12.3946 4.21104 11.8859 4.00033 11.3555 4.00033H3.35547C2.82504 4.00033 2.31633 4.21104 1.94126 4.58611C1.56618 4.96118 1.35547 5.46989 1.35547 6.00033V11.3337ZM7.35547 0.666992L8.33214 1.75899C8.50641 1.94635 8.6231 2.1799 8.66827 2.43176C8.71344 2.68362 8.68517 2.94316 8.58686 3.1794C8.48855 3.41564 8.32433 3.61861 8.11382 3.76406C7.9033 3.90952 7.65537 3.99133 7.39963 3.99973C7.14389 4.00813 6.89113 3.94276 6.67152 3.81142C6.45192 3.68009 6.27474 3.48834 6.16114 3.25905C6.04754 3.02977 6.00231 2.77264 6.03086 2.51836C6.05941 2.26408 6.16052 2.02338 6.32214 1.82499L7.35547 0.666992Z" stroke="white" stroke-width="1.33333" stroke-linecap="round" stroke-linejoin="round"/>
</svg>
