<svg width="20" height="20" viewBox="0 0 20 20" fill="none" xmlns="http://www.w3.org/2000/svg">
<path d="M1.83327 13.2485L2.56432 13.0809L1.83327 13.2485ZM1.83327 7.35323L2.56432 7.52078L1.83327 7.35323ZM18.1667 7.35323L17.4357 7.52079L18.1667 7.35323ZM18.1667 13.2485L17.4357 13.0809L18.1667 13.2485ZM12.8801 18.6589L13.0552 19.3882L12.8801 18.6589ZM7.11986 18.6589L7.29493 17.9296L7.11986 18.6589ZM7.11985 1.94279L7.29493 2.67207L7.11985 1.94279ZM12.8801 1.94279L13.0552 1.21351L12.8801 1.94279ZM6.82008 1C6.82008 0.585786 6.48429 0.25 6.07008 0.25C5.65587 0.25 5.32008 0.585786 5.32008 1H6.07008H6.82008ZM5.32008 3.51375C5.32008 3.92796 5.65587 4.26375 6.07008 4.26375C6.48429 4.26375 6.82008 3.92796 6.82008 3.51375H6.07008H5.32008ZM14.6799 1C14.6799 0.585786 14.3441 0.25 13.9299 0.25C13.5157 0.25 13.1799 0.585786 13.1799 1H13.9299H14.6799ZM13.1799 3.51375C13.1799 3.92796 13.5157 4.26375 13.9299 4.26375C14.3441 4.26375 14.6799 3.92796 14.6799 3.51375H13.9299H13.1799ZM1.83327 13.2485L2.56432 13.0809C2.14523 11.2524 2.14523 9.34928 2.56432 7.52078L1.83327 7.35323L1.10223 7.18568C0.63259 9.23472 0.63259 11.367 1.10223 13.416L1.83327 13.2485ZM18.1667 7.35323L17.4357 7.52079C17.8548 9.34928 17.8548 11.2524 17.4357 13.0809L18.1667 13.2485L18.8978 13.416C19.3674 11.367 19.3674 9.23472 18.8978 7.18568L18.1667 7.35323ZM12.8801 18.6589L12.7051 17.9296C10.9258 18.3568 9.07424 18.3568 7.29493 17.9296L7.11986 18.6589L6.94478 19.3882C8.95425 19.8706 11.0458 19.8706 13.0552 19.3882L12.8801 18.6589ZM7.11985 1.94279L7.29493 2.67207C9.07424 2.24493 10.9258 2.24493 12.7051 2.67207L12.8801 1.94279L13.0552 1.21351C11.0458 0.731113 8.95425 0.731113 6.94478 1.21351L7.11985 1.94279ZM7.11986 18.6589L7.29493 17.9296C4.95607 17.3682 3.11769 15.4953 2.56432 13.0809L1.83327 13.2485L1.10223 13.416C1.77946 16.3708 4.03739 18.6902 6.94478 19.3882L7.11986 18.6589ZM12.8801 18.6589L13.0552 19.3882C15.9626 18.6902 18.2205 16.3708 18.8978 13.416L18.1667 13.2485L17.4357 13.0809C16.8823 15.4953 15.0439 17.3682 12.7051 17.9296L12.8801 18.6589ZM12.8801 1.94279L12.7051 2.67207C15.0439 3.23355 16.8823 5.10642 17.4357 7.52079L18.1667 7.35323L18.8978 7.18568C18.2205 4.23089 15.9626 1.91147 13.0552 1.21351L12.8801 1.94279ZM7.11985 1.94279L6.94478 1.21351C4.03739 1.91147 1.77946 4.23089 1.10223 7.18568L1.83327 7.35323L2.56432 7.52078C3.11769 5.10641 4.95607 3.23355 7.29493 2.67207L7.11985 1.94279ZM2.14016 6.27886V7.02886H17.8598V6.27886V5.52886H2.14016V6.27886ZM6.07008 1H5.32008V3.51375H6.07008H6.82008V1H6.07008ZM13.9299 1H13.1799V3.51375H13.9299H14.6799V1H13.9299Z" fill="white"/>
</svg>
