<svg width="14" height="16" viewBox="0 0 14 16" fill="none" xmlns="http://www.w3.org/2000/svg">
<path d="M1 8.66634C1 7.88706 1 7.22924 1.01929 6.66634C1.06187 5.42355 1.19845 4.64346 1.63661 4.04039C1.84221 3.75741 2.09107 3.50855 2.37405 3.30295C2.97712 2.8648 3.75721 2.72821 5 2.68563C5.5629 2.66634 6.22072 2.66634 7 2.66634C7.77928 2.66634 8.4371 2.66634 9 2.68563C10.2428 2.72821 11.0229 2.8648 11.626 3.30295C11.9089 3.50855 12.1578 3.75741 12.3634 4.04039C12.8015 4.64346 12.9381 5.42355 12.9807 6.66634C13 7.22924 13 7.88706 13 8.66634C13 9.44563 13 10.1034 12.9807 10.6663C12.9381 11.9091 12.8015 12.6892 12.3634 13.2923C12.1578 13.5753 11.9089 13.8241 11.626 14.0297C11.0229 14.4679 10.2428 14.6045 9 14.6471C8.4371 14.6663 7.77928 14.6663 7 14.6663C4.50018 14.6663 3.25027 14.6663 2.37405 14.0297C2.09107 13.8241 1.84221 13.5753 1.63661 13.2923C1 12.4161 1 11.1662 1 8.66634Z" fill="white"/>
<path d="M2.37405 14.0297L2.81489 13.423L2.37405 14.0297ZM1.63661 13.2923L2.24337 12.8515L1.63661 13.2923ZM12.3634 13.2923L11.7566 12.8515L12.3634 13.2923ZM11.626 14.0297L12.0668 14.6365L11.626 14.0297ZM11.626 3.30295L12.0668 2.69619L11.626 3.30295ZM12.3634 4.04039L11.7566 4.48123L12.3634 4.04039ZM2.37405 3.30295L2.81489 3.90971L2.37405 3.30295ZM1.63661 4.04039L2.24337 4.48123L1.63661 4.04039ZM11.8119 10.7074L11.6946 9.96661L11.8119 10.7074ZM9.04104 13.4782L8.30027 13.3609L9.04104 13.4782ZM5 8.58301C4.58579 8.58301 4.25 8.91879 4.25 9.33301C4.25 9.74722 4.58579 10.083 5 10.083V8.58301ZM9 10.083C9.41421 10.083 9.75 9.74722 9.75 9.33301C9.75 8.91879 9.41421 8.58301 9 8.58301V10.083ZM8.25 3.33301C8.25 3.74722 8.58579 4.08301 9 4.08301C9.41421 4.08301 9.75 3.74722 9.75 3.33301H8.25ZM9.75 1.33301C9.75 0.918794 9.41421 0.583008 9 0.583008C8.58579 0.583008 8.25 0.918794 8.25 1.33301H9.75ZM4.25 3.33301C4.25 3.74722 4.58579 4.08301 5 4.08301C5.41421 4.08301 5.75 3.74722 5.75 3.33301H4.25ZM5.75 1.33301C5.75 0.918794 5.41421 0.583008 5 0.583008C4.58579 0.583008 4.25 0.918794 4.25 1.33301H5.75ZM12.9807 10.6663L13.7303 10.692L12.9807 10.6663ZM1.01929 6.66634L0.269725 6.64066L1.01929 6.66634ZM12.9807 6.66634L13.7303 6.64066L12.9807 6.66634ZM7 13.9163C5.73338 13.9163 4.84366 13.9153 4.15896 13.8411C3.48829 13.7685 3.10384 13.6329 2.81489 13.423L1.93321 14.6365C2.52048 15.0632 3.19909 15.2459 3.99739 15.3324C4.78165 15.4174 5.7668 15.4163 7 15.4163V13.9163ZM0.25 8.66634C0.25 9.89955 0.248971 10.8847 0.33394 11.669C0.42043 12.4672 0.603171 13.1459 1.02985 13.7331L2.24337 12.8515C2.03344 12.5625 1.89788 12.1781 1.82521 11.5074C1.75103 10.8227 1.75 9.93296 1.75 8.66634H0.25ZM2.81489 13.423C2.59558 13.2636 2.40271 13.0708 2.24337 12.8515L1.02985 13.7331C1.28171 14.0798 1.58656 14.3846 1.93321 14.6365L2.81489 13.423ZM11.7566 12.8515C11.5973 13.0708 11.4044 13.2636 11.1851 13.423L12.0668 14.6365C12.4134 14.3846 12.7183 14.0798 12.9702 13.7331L11.7566 12.8515ZM11.1851 3.90971C11.4044 4.06905 11.5973 4.26192 11.7566 4.48123L12.9702 3.59955C12.7183 3.2529 12.4134 2.94805 12.0668 2.69619L11.1851 3.90971ZM1.93321 2.69619C1.58656 2.94805 1.28171 3.2529 1.02985 3.59955L2.24337 4.48123C2.40271 4.26192 2.59558 4.06905 2.81489 3.90971L1.93321 2.69619ZM11.6946 9.96661C9.94733 10.2433 8.57701 11.6137 8.30027 13.3609L9.78181 13.5956C9.95688 12.4902 10.8238 11.6232 11.9292 11.4481L11.6946 9.96661ZM5 10.083H9V8.58301H5V10.083ZM12.9807 9.91634C12.4017 9.91635 12.0237 9.91448 11.6946 9.96661L11.9292 11.4481C12.1129 11.4191 12.3467 11.4163 12.9807 11.4163L12.9807 9.91634ZM12.25 8.66634C12.25 9.44978 12.2499 10.0933 12.2312 10.6407L13.7303 10.692C13.7501 10.1135 13.75 9.44147 13.75 8.66634H12.25ZM12.2312 10.6407C12.1889 11.8742 12.0502 12.4474 11.7566 12.8515L12.9702 13.7331C13.5529 12.931 13.6874 11.9441 13.7303 10.692L12.2312 10.6407ZM9.75 14.6471C9.75 14.0131 9.75272 13.7792 9.78181 13.5956L8.30027 13.3609C8.24814 13.69 8.25 14.068 8.25 14.647L9.75 14.6471ZM7 15.4163C7.77514 15.4163 8.44721 15.4164 9.02568 15.3966L8.97432 13.8975C8.427 13.9162 7.78343 13.9163 7 13.9163V15.4163ZM9.02568 15.3966C10.2777 15.3537 11.2647 15.2193 12.0668 14.6365L11.1851 13.423C10.7811 13.7165 10.2079 13.8552 8.97432 13.8975L9.02568 15.3966ZM1.75 8.66634C1.75 7.88291 1.75009 7.23934 1.76885 6.69202L0.269725 6.64066C0.249906 7.21914 0.25 7.89121 0.25 8.66634H1.75ZM1.76885 6.69202C1.81111 5.45849 1.94984 4.88524 2.24337 4.48123L1.02985 3.59955C0.447069 4.40168 0.312622 5.38861 0.269725 6.64066L1.76885 6.69202ZM1.01929 7.41634H12.9807V5.91634H1.01929V7.41634ZM13.75 8.66634C13.75 7.89121 13.7501 7.21914 13.7303 6.64066L12.2312 6.69202C12.2499 7.23934 12.25 7.88291 12.25 8.66634H13.75ZM13.7303 6.64066C13.6874 5.38861 13.5529 4.40168 12.9702 3.59955L11.7566 4.48123C12.0502 4.88524 12.1889 5.45849 12.2312 6.69202L13.7303 6.64066ZM9.75 3.33301V2.68563H8.25V3.33301H9.75ZM9.75 2.68563V1.33301H8.25V2.68563H9.75ZM7 3.41634C7.78343 3.41634 8.427 3.41644 8.97432 3.43519L9.02568 1.93607C8.4472 1.91625 7.77513 1.91634 7 1.91634V3.41634ZM8.97432 3.43519C10.2079 3.47745 10.7811 3.61618 11.1851 3.90971L12.0668 2.69619C11.2647 2.11341 10.2777 1.97896 9.02568 1.93607L8.97432 3.43519ZM5.75 3.33301V2.68563H4.25V3.33301H5.75ZM5.75 2.68563V1.33301H4.25V2.68563H5.75ZM7 1.91634C6.22487 1.91634 5.5528 1.91625 4.97432 1.93607L5.02568 3.43519C5.573 3.41644 6.21657 3.41634 7 3.41634V1.91634ZM4.97432 1.93607C3.72227 1.97896 2.73534 2.11341 1.93321 2.69619L2.81489 3.90971C3.2189 3.61618 3.79215 3.47745 5.02568 3.43519L4.97432 1.93607Z" fill="#999999"/>
</svg>
