<svg width="24" height="20" viewBox="0 0 24 20" fill="none" xmlns="http://www.w3.org/2000/svg">
<path fill-rule="evenodd" clip-rule="evenodd" d="M13.4822 1.95133C15.51 2.42655 17.1316 3.91484 17.6838 5.83499L18.458 5.37444C20.4352 4.1981 23 5.55122 23 7.77073L23 12.5944C23 14.6951 20.6776 16.0613 18.7037 15.1219L17.5485 14.572C16.8965 16.2938 15.3643 17.6076 13.4822 18.0487C10.9345 18.6457 8.24347 18.653 5.69246 18.0551C3.59198 17.5629 1.96547 15.9809 1.49366 13.9713L1.42818 13.6925C0.857273 11.2608 0.857274 8.73919 1.42818 6.30754L1.49366 6.02865C1.96547 4.0191 3.59198 2.43714 5.69246 1.94488C8.24347 1.34704 10.9345 1.35426 13.4822 1.95133ZM17.9906 12.8481C18.3134 11.1277 18.3414 9.36975 18.0745 7.64278L19.4213 6.84156C20.188 6.38543 21.1825 6.9101 21.1825 7.77073L21.1825 12.5944C21.1825 13.4089 20.2819 13.9387 19.5166 13.5744L17.9906 12.8481Z" fill="#111D4A" stroke="#111D4A" stroke-width="1.5"/>
</svg>
