<svg width="46" height="46" viewBox="0 0 46 46" fill="none" xmlns="http://www.w3.org/2000/svg">
<path fill-rule="evenodd" clip-rule="evenodd" d="M0.5 23C0.5 13.6257 0.5 8.9385 2.88729 5.65268C3.65828 4.5915 4.5915 3.65828 5.65268 2.88729C8.9385 0.5 13.6257 0.5 23 0.5C32.3743 0.5 37.0615 0.5 40.3473 2.88729C41.4085 3.65828 42.3417 4.5915 43.1127 5.65268C45.5 8.9385 45.5 13.6257 45.5 23C45.5 32.3743 45.5 37.0615 43.1127 40.3473C42.3417 41.4085 41.4085 42.3417 40.3473 43.1127C37.0615 45.5 32.3743 45.5 23 45.5C13.6257 45.5 8.9385 45.5 5.65268 43.1127C4.5915 42.3417 3.65828 41.4085 2.88729 40.3473C0.5 37.0615 0.5 32.3743 0.5 23ZM23 8.625C24.0355 8.625 24.875 9.46447 24.875 10.5V25.5C24.875 26.5355 24.0355 27.375 23 27.375C21.9645 27.375 21.125 26.5355 21.125 25.5V10.5C21.125 9.46447 21.9645 8.625 23 8.625ZM23 35.5C24.3807 35.5 25.5 34.3807 25.5 33C25.5 31.6193 24.3807 30.5 23 30.5C21.6193 30.5 20.5 31.6193 20.5 33C20.5 34.3807 21.6193 35.5 23 35.5Z" fill="#111D4A"/>
</svg>
