<svg width="19" height="18" viewBox="0 0 19 18" fill="none" xmlns="http://www.w3.org/2000/svg">
<path fill-rule="evenodd" clip-rule="evenodd" d="M12.5308 0.330301C10.5345 -0.1101 8.46552 -0.1101 6.46917 0.3303L6.05155 0.422427C3.7436 0.931566 1.83995 2.48141 0.862268 4.56555C0.715378 4.87867 0.955773 5.22161 1.30164 5.22161H17.6984C18.0442 5.22161 18.2846 4.87867 18.1377 4.56555C17.16 2.48141 15.2564 0.931565 12.9484 0.422426L12.5308 0.330301ZM0.376983 12.0688C-0.0255557 10.4549 -0.105724 8.7821 0.136477 7.14473C0.171839 6.90567 0.379993 6.73296 0.621653 6.73296H18.3783C18.62 6.73296 18.8282 6.90567 18.8635 7.14473C19.1057 8.7821 19.0256 10.4549 18.623 12.0688C17.9347 14.8286 15.7366 16.9625 12.9484 17.5776L12.5308 17.6697C10.5345 18.1101 8.46552 18.1101 6.46917 17.6697L6.05155 17.5776C3.26343 16.9625 1.06534 14.8286 0.376983 12.0688ZM4.44085 8.24431C4.02174 8.24431 3.68198 8.58264 3.68198 8.99999C3.68198 9.41733 4.02174 9.75566 4.44085 9.75566H8.48819C8.9073 9.75566 9.24706 9.41733 9.24706 8.99999C9.24706 8.58264 8.9073 8.24431 8.48819 8.24431H4.44085Z" fill="#363853"/>
</svg>
