<svg width="32" height="32" viewBox="0 0 32 32" fill="none" xmlns="http://www.w3.org/2000/svg">
<path fill-rule="evenodd" clip-rule="evenodd" d="M22.7537 5.41855C18.9139 3.52715 14.4194 3.52715 10.5796 5.41855C8.11569 6.63224 6.44588 9.03715 6.16486 11.7838L6.12094 12.2131C5.97307 13.6584 5.96077 15.1144 6.08419 16.5619L6.12543 17.0456C6.19298 17.8382 6.23195 18.2953 6.30779 18.7323C6.71962 21.1051 7.95683 23.2529 9.79759 24.7932C10.1365 25.0768 10.5114 25.3385 11.1618 25.7926L11.4963 26.0261C12.3622 26.6307 12.8858 26.9963 13.421 27.2554C15.472 28.2482 17.8613 28.2482 19.9124 27.2554C20.4475 26.9963 20.9711 26.6308 21.837 26.0261L22.1713 25.7927C22.8219 25.3386 23.1968 25.0768 23.5357 24.7932C25.3765 23.2529 26.6137 21.1051 27.0255 18.7323C27.1014 18.2954 27.1404 17.8382 27.2079 17.0456L27.2491 16.5619C27.3726 15.1144 27.3603 13.6584 27.2124 12.2131L27.1685 11.7838C26.8875 9.03715 25.2176 6.63224 22.7537 5.41855ZM20.6273 12.8805C20.9872 13.2197 21.0066 13.7892 20.6707 14.1526L16.4041 18.768C16.2391 18.9464 16.0094 19.0495 15.7677 19.0537C15.526 19.058 15.293 18.9629 15.122 18.7903L12.6839 16.3287C12.3358 15.9773 12.3358 15.4074 12.6839 15.0559C13.0321 14.7045 13.5965 14.7045 13.9446 15.0559L15.7303 16.8588L19.3674 12.9244C19.7033 12.561 20.2674 12.5414 20.6273 12.8805Z" fill="#7C47E7"/>
</svg>
