<svg width="16" height="16" viewBox="0 0 16 16" fill="none" xmlns="http://www.w3.org/2000/svg">
<path d="M14.6673 7.99967C14.6673 11.6816 11.6825 14.6663 8.00065 14.6663C4.31875 14.6663 1.33398 11.6816 1.33398 7.99967C1.33398 4.31778 4.31875 1.33301 8.00065 1.33301C11.6825 1.33301 14.6673 4.31778 14.6673 7.99967Z" fill="white"/>
<path d="M8.75065 5.33301C8.75065 4.91879 8.41486 4.58301 8.00065 4.58301C7.58644 4.58301 7.25065 4.91879 7.25065 5.33301L8.75065 5.33301ZM10.0007 9.41634C10.4149 9.41634 10.7507 9.08055 10.7507 8.66634C10.7507 8.25213 10.4149 7.91634 10.0007 7.91634V9.41634ZM1.53213 1.58069C1.20868 1.83945 1.15624 2.31142 1.415 2.63486C1.67376 2.95831 2.14573 3.01075 2.46917 2.75199L1.53213 1.58069ZM4.13584 1.41866C4.45929 1.1599 4.51173 0.687933 4.25297 0.364487C3.99421 0.0410401 3.52224 -0.0114009 3.1988 0.247356L4.13584 1.41866ZM13.5321 2.75199C13.8556 3.01075 14.3275 2.95831 14.5863 2.63486C14.8451 2.31142 14.7926 1.83945 14.4692 1.58069L13.5321 2.75199ZM12.8025 0.247356C12.4791 -0.0114009 12.0071 0.0410401 11.7483 0.364487C11.4896 0.687933 11.542 1.1599 11.8655 1.41866L12.8025 0.247356ZM8.00065 7.66634H7.25065H8.00065ZM7.25065 5.33301L7.25065 7.66634L8.75065 7.66634L8.75065 5.33301L7.25065 5.33301ZM13.9173 7.99967C13.9173 11.2674 11.2683 13.9163 8.00065 13.9163V15.4163C12.0968 15.4163 15.4173 12.0958 15.4173 7.99967H13.9173ZM8.00065 13.9163C4.73297 13.9163 2.08398 11.2674 2.08398 7.99967H0.583984C0.583984 12.0958 3.90454 15.4163 8.00065 15.4163V13.9163ZM2.08398 7.99967C2.08398 4.73199 4.73297 2.08301 8.00065 2.08301V0.583008C3.90454 0.583008 0.583984 3.90356 0.583984 7.99967H2.08398ZM8.00065 2.08301C11.2683 2.08301 13.9173 4.73199 13.9173 7.99967H15.4173C15.4173 3.90356 12.0968 0.583008 8.00065 0.583008V2.08301ZM2.46917 2.75199L4.13584 1.41866L3.1988 0.247356L1.53213 1.58069L2.46917 2.75199ZM14.4692 1.58069L12.8025 0.247356L11.8655 1.41866L13.5321 2.75199L14.4692 1.58069ZM9.00065 9.41634H10.0007V7.91634H9.00065V9.41634ZM7.25065 7.66634C7.25065 8.63284 8.03415 9.41634 9.00065 9.41634V7.91634C8.86258 7.91634 8.75065 7.80441 8.75065 7.66634L7.25065 7.66634Z" fill="#999999"/>
</svg>
