<svg width="50" height="50" viewBox="0 0 50 50" fill="none" xmlns="http://www.w3.org/2000/svg">
<path fill-rule="evenodd" clip-rule="evenodd" d="M7.31587 27.0732V15.1086C7.31587 11.1665 9.9938 7.69414 13.7768 6.64716C14.7208 6.38591 15.7081 6.25 16.6873 6.25H18.4747C21.9773 6.25 26.0879 8.9816 27.5967 12.5933C29.243 12.7096 30.8835 12.9365 32.5071 13.2741C37.0851 14.226 40.7525 17.7593 41.9536 22.2984C42.9513 26.0687 42.9648 30.0861 41.967 33.8565C40.7471 38.4666 37.0399 41.989 32.3902 42.9558L32.0665 43.0231C27.4051 43.9923 22.5955 43.9923 17.9342 43.0231L17.6105 42.9558C12.9608 41.989 9.25352 38.4666 8.0336 33.8565C7.63073 32.334 7.39273 30.7713 7.31782 29.2008L7.31587 29.1954V29.1592C7.28401 28.4644 7.28406 27.7681 7.31587 27.0732ZM30.6529 16.9757C29.9419 16.8566 29.2695 17.3392 29.151 18.0535C29.0325 18.7677 29.5128 19.4433 30.2238 19.5623L30.3126 19.5772C33.3977 20.0938 35.6589 22.7754 35.6589 25.9175C35.6589 26.6416 36.2432 27.2287 36.964 27.2287C37.6848 27.2287 38.2691 26.6416 38.2691 25.9175C38.2691 21.4935 35.0854 17.7179 30.7417 16.9906L30.6529 16.9757Z" fill="#999999"/>
</svg>
