<svg width="38" height="38" viewBox="0 0 38 38" fill="none" xmlns="http://www.w3.org/2000/svg">
<path fill-rule="evenodd" clip-rule="evenodd" d="M30.5523 37.2402C28.9832 37.75 27.0443 37.75 23.1667 37.75H14.8333C10.9557 37.75 9.01683 37.75 7.44774 37.2402C4.27651 36.2098 1.79022 33.7235 0.759828 30.5523C0.25 28.9832 0.25 22.8777 0.25 19V5.86224C0.25 3.95826 0.25 3.00627 0.550094 2.27184C0.847952 1.54289 1.347 0.954729 1.9655 0.603683C2.58866 0.25 3.39641 0.25 5.0119 0.25C9.05065 0.25 11.07 0.25 12.6279 1.13421C14.1742 2.01182 15.4218 3.48222 16.1664 5.30461L16.186 5.3526C16.8928 7.08162 18.3825 8.58004 20.2503 8.5901C24.3004 8.6119 29.3546 8.70403 30.5523 9.09316C33.7235 10.1236 36.2098 12.6098 37.2402 15.7811C37.75 17.3502 37.75 19.289 37.75 23.1667C37.75 27.0443 37.75 28.9832 37.2402 30.5523C36.2098 33.7235 33.7235 36.2098 30.5523 37.2402ZM20.5625 16.9167C20.5625 16.0537 19.8629 15.3542 19 15.3542C18.1371 15.3542 17.4375 16.0537 17.4375 16.9167V21.6042H12.75C11.8871 21.6042 11.1875 22.3037 11.1875 23.1667C11.1875 24.0296 11.8871 24.7292 12.75 24.7292H17.4375V29.4167C17.4375 30.2796 18.1371 30.9792 19 30.9792C19.8629 30.9792 20.5625 30.2796 20.5625 29.4167V24.7292H25.25C26.1129 24.7292 26.8125 24.0296 26.8125 23.1667C26.8125 22.3037 26.1129 21.6042 25.25 21.6042H20.5625V16.9167Z" fill="#999999"/>
</svg>
