<svg width="25" height="24" viewBox="0 0 25 24" fill="none" xmlns="http://www.w3.org/2000/svg">
<path d="M5.33337 9.8C5.33337 8.943 5.33337 8.361 5.37137 7.911C5.40637 7.473 5.47137 7.248 5.55137 7.092L3.76937 6.184C3.52237 6.669 3.42337 7.186 3.37737 7.748C3.33337 8.298 3.33337 8.976 3.33337 9.8H5.33337ZM5.33337 12V9.8H3.33337V12H5.33337ZM3.33337 12V17H5.33337V12H3.33337ZM3.33337 17V19.914H5.33337V17H3.33337ZM3.33337 19.914C3.33337 21.205 4.89537 21.852 5.80837 20.939L4.39437 19.525C4.47129 19.448 4.56931 19.3956 4.67602 19.3744C4.78274 19.3532 4.89335 19.364 4.99387 19.4057C5.0944 19.4473 5.18031 19.5179 5.24074 19.6083C5.30117 19.6988 5.33341 19.8052 5.33337 19.914H3.33337ZM5.80837 20.939L8.74837 18L7.33337 16.586L4.39437 19.525L5.80837 20.939ZM15.5334 16H8.74737V18H15.5334V16ZM18.2414 15.782C18.0854 15.862 17.8614 15.927 17.4224 15.962C16.9724 15.999 16.3904 16 15.5334 16V18C16.3574 18 17.0344 18 17.5854 17.956C18.1474 17.91 18.6644 17.811 19.1494 17.564L18.2414 15.782ZM19.1154 14.908C18.9236 15.2843 18.6177 15.5903 18.2414 15.782L19.1494 17.564C19.902 17.1805 20.5139 16.5686 20.8974 15.816L19.1154 14.908ZM19.3334 12.2C19.3334 13.057 19.3334 13.639 19.2954 14.089C19.2604 14.527 19.1954 14.752 19.1154 14.908L20.8974 15.816C21.1444 15.331 21.2434 14.814 21.2894 14.252C21.3344 13.702 21.3334 13.024 21.3334 12.2H19.3334ZM19.3334 9.8V12.2H21.3334V9.8H19.3334ZM19.1154 7.092C19.1954 7.248 19.2604 7.472 19.2954 7.911C19.3334 8.361 19.3334 8.943 19.3334 9.8H21.3334C21.3334 8.976 21.3334 8.299 21.2894 7.748C21.2434 7.186 21.1444 6.669 20.8974 6.184L19.1154 7.092ZM18.2414 6.218C18.6177 6.40974 18.9236 6.71569 19.1154 7.092L20.8974 6.184C20.5139 5.43139 19.902 4.81949 19.1494 4.436L18.2414 6.218ZM15.5334 6C16.3904 6 16.9724 6 17.4224 6.038C17.8604 6.073 18.0854 6.138 18.2414 6.218L19.1494 4.436C18.6644 4.189 18.1474 4.09 17.5854 4.044C17.0354 4 16.3574 4 15.5334 4V6ZM9.13337 6H15.5334V4H9.13337V6ZM6.42537 6.218C6.58137 6.138 6.80537 6.073 7.24437 6.038C7.69437 6 8.27637 6 9.13337 6V4C8.30937 4 7.63237 4 7.08137 4.044C6.51937 4.09 6.00237 4.189 5.51737 4.436L6.42537 6.218ZM5.55137 7.092C5.74312 6.71569 6.04907 6.40974 6.42537 6.218L5.51737 4.436C4.76476 4.81949 4.15286 5.43139 3.76937 6.184L5.55137 7.092ZM8.74737 18V16C8.21698 16.0001 7.70836 16.2109 7.33337 16.586L8.74737 18Z" fill="#999999"/>
<path d="M8.33337 9H16.3334M8.33337 13H13.3334" stroke="#999999" stroke-width="2" stroke-linecap="round" stroke-linejoin="round"/>
</svg>
