<svg width="26" height="29" viewBox="0 0 26 29" fill="none" xmlns="http://www.w3.org/2000/svg">
<g filter="url(#filter0_d_12775_24465)">
<path fill-rule="evenodd" clip-rule="evenodd" d="M19.2549 17.6645L19.5172 15.7795C19.5979 15.1995 19.6717 14.6693 19.7373 14.1829C19.8721 13.1834 19.9395 12.6837 19.6406 12.3418C19.3418 12 18.8282 12 17.801 12H8.19905C7.17182 12 6.65821 12 6.35938 12.3418C6.06054 12.6837 6.12793 13.1834 6.26272 14.1829C6.32833 14.6695 6.40207 15.1993 6.48281 15.7795L6.74515 17.6645C7.03026 19.7132 7.17282 20.7376 7.47509 21.5603C8.04034 23.0988 9.01744 24.2447 10.1837 24.7368C10.8073 25 11.5382 25 13 25C14.4618 25 15.1927 25 15.8164 24.7368C16.9826 24.2447 17.9597 23.0988 18.5249 21.5603C18.8272 20.7376 18.9698 19.7132 19.2549 17.6645ZM11.75 14C11.75 13.5858 11.4142 13.25 11 13.25C10.5858 13.25 10.25 13.5858 10.25 14V22C10.25 22.4142 10.5858 22.75 11 22.75C11.4142 22.75 11.75 22.4142 11.75 22V14ZM15.75 14C15.75 13.5858 15.4142 13.25 15 13.25C14.5858 13.25 14.25 13.5858 14.25 14V22C14.25 22.4142 14.5858 22.75 15 22.75C15.4142 22.75 15.75 22.4142 15.75 22V14Z" fill="#F44336"/>
<path d="M13 4.25C10.3766 4.25 8.25 6.37665 8.25 9V9.25H5C4.58579 9.25 4.25 9.58579 4.25 10C4.25 10.4142 4.58579 10.75 5 10.75H21C21.4142 10.75 21.75 10.4142 21.75 10C21.75 9.58579 21.4142 9.25 21 9.25H17.75V9C17.75 6.37665 15.6234 4.25 13 4.25Z" fill="#F44336"/>
</g>
<defs>
<filter id="filter0_d_12775_24465" x="-3" y="-1" width="32" height="32" filterUnits="userSpaceOnUse" color-interpolation-filters="sRGB">
<feFlood flood-opacity="0" result="BackgroundImageFix"/>
<feColorMatrix in="SourceAlpha" type="matrix" values="0 0 0 0 0 0 0 0 0 0 0 0 0 0 0 0 0 0 127 0" result="hardAlpha"/>
<feOffset/>
<feGaussianBlur stdDeviation="2"/>
<feComposite in2="hardAlpha" operator="out"/>
<feColorMatrix type="matrix" values="0 0 0 0 0 0 0 0 0 0 0 0 0 0 0 0 0 0 0.1 0"/>
<feBlend mode="normal" in2="BackgroundImageFix" result="effect1_dropShadow_12775_24465"/>
<feBlend mode="normal" in="SourceGraphic" in2="effect1_dropShadow_12775_24465" result="shape"/>
</filter>
</defs>
</svg>

<svg width="60" height="60" viewBox="0 0 60 60" fill="none" xmlns="http://www.w3.org/2000/svg">
<path fill-rule="evenodd" clip-rule="evenodd" d="M45.6372 36.6613L46.293 31.9487C46.4948 30.4988 46.6793 29.1733 46.8433 27.9573C47.1802 25.4586 47.3487 24.2092 46.6016 23.3546C45.8545 22.5 44.5705 22.5 42.0024 22.5H17.9976C15.4296 22.5 14.1455 22.5 13.3984 23.3546C12.6514 24.2092 12.8198 25.4586 13.1568 27.9573C13.3208 29.1736 13.5052 30.4982 13.707 31.9487L14.3629 36.6613C15.0757 41.7831 15.4321 44.344 16.1877 46.4008C17.6009 50.247 20.0436 53.1118 22.9591 54.3421C24.5183 55 26.3455 55 30 55C33.6545 55 35.4818 55 37.0409 54.3421C39.9565 53.1118 42.3992 50.247 43.8123 46.4008C44.568 44.344 44.9244 41.7831 45.6372 36.6613ZM26.875 27.5C26.875 26.4645 26.0355 25.625 25 25.625C23.9645 25.625 23.125 26.4645 23.125 27.5V47.5C23.125 48.5355 23.9645 49.375 25 49.375C26.0355 49.375 26.875 48.5355 26.875 47.5V27.5ZM36.875 27.5C36.875 26.4645 36.0355 25.625 35 25.625C33.9645 25.625 33.125 26.4645 33.125 27.5V47.5C33.125 48.5355 33.9645 49.375 35 49.375C36.0355 49.375 36.875 48.5355 36.875 47.5V27.5Z" fill="#A20606"/>
<path d="M30 3.125C23.4416 3.125 18.125 8.44162 18.125 15V15.625H10C8.96447 15.625 8.125 16.4645 8.125 17.5C8.125 18.5355 8.96447 19.375 10 19.375H50C51.0355 19.375 51.875 18.5355 51.875 17.5C51.875 16.4645 51.0355 15.625 50 15.625H41.875V15C41.875 8.44162 36.5584 3.125 30 3.125Z" fill="#A20606"/>
</svg>
