<svg width="18" height="21" viewBox="0 0 18 21" fill="none" xmlns="http://www.w3.org/2000/svg">
<path fill-rule="evenodd" clip-rule="evenodd" d="M15.2549 13.6645L15.5172 11.7795C15.5979 11.1995 15.6717 10.6693 15.7373 10.1829C15.8721 9.18343 15.9395 8.68367 15.6406 8.34184C15.3418 8 14.8282 8 13.801 8H4.19905C3.17182 8 2.65821 8 2.35938 8.34184C2.06054 8.68367 2.12793 9.18343 2.26272 10.1829C2.32833 10.6695 2.40207 11.1993 2.48281 11.7795L2.74515 13.6645C3.03026 15.7132 3.17282 16.7376 3.47509 17.5603C4.04034 19.0988 5.01744 20.2447 6.18366 20.7368C6.8073 21 7.53822 21 9.00001 21C10.4618 21 11.1927 21 11.8164 20.7368C12.9826 20.2447 13.9597 19.0988 14.5249 17.5603C14.8272 16.7376 14.9698 15.7132 15.2549 13.6645ZM7.75 10C7.75 9.58579 7.41421 9.25 7 9.25C6.58579 9.25 6.25 9.58579 6.25 10V18C6.25 18.4142 6.58579 18.75 7 18.75C7.41421 18.75 7.75 18.4142 7.75 18V10ZM11.75 10C11.75 9.58579 11.4142 9.25 11 9.25C10.5858 9.25 10.25 9.58579 10.25 10V18C10.25 18.4142 10.5858 18.75 11 18.75C11.4142 18.75 11.75 18.4142 11.75 18V10Z" fill="#F44336"/>
<path d="M9 0.25C6.37665 0.25 4.25 2.37665 4.25 5V5.25H1C0.585786 5.25 0.25 5.58579 0.25 6C0.25 6.41421 0.585786 6.75 1 6.75H17C17.4142 6.75 17.75 6.41421 17.75 6C17.75 5.58579 17.4142 5.25 17 5.25H13.75V5C13.75 2.37665 11.6234 0.25 9 0.25Z" fill="#F44336"/>
</svg>
