<svg width="16" height="16" viewBox="0 0 16 16" fill="none" xmlns="http://www.w3.org/2000/svg">
<path d="M10.6667 5.33301C10.6667 6.80577 9.47276 7.99967 8 7.99967C6.52724 7.99967 5.33333 6.80577 5.33333 5.33301C5.33333 3.86025 6.52724 2.66634 8 2.66634C9.47276 2.66634 10.6667 3.86025 10.6667 5.33301Z" fill="white"/>
<path d="M2 6.78755C2 4.80622 2 3.81556 2.40774 3.06884C2.71398 2.50799 3.17499 2.04699 3.73584 1.74075C4.48255 1.33301 5.47322 1.33301 7.45455 1.33301H8.54545C10.5268 1.33301 11.5175 1.33301 12.2642 1.74075C12.825 2.04699 13.286 2.50799 13.5923 3.06884C14 3.81556 14 4.80622 14 6.78756V8.86297C14 8.90549 14 8.92675 13.9998 8.94474C13.9873 10.0994 13.3885 11.113 12.4868 11.7017C11.973 12.0372 11.3607 12.2348 10.7026 12.2419C10.6847 12.2421 10.6634 12.2421 10.6209 12.2421C10.617 12.2421 10.6151 12.2421 10.6133 12.2421C10.4346 12.2431 10.2638 12.3158 10.1392 12.4438C10.1379 12.4451 10.1366 12.4465 10.1339 12.4493L9.9213 12.6702C9.01861 13.608 8.56727 14.077 8 14.077C7.43273 14.077 6.98139 13.608 6.0787 12.6702L5.86606 12.4493C5.86341 12.4465 5.86208 12.4451 5.8608 12.4438C5.73618 12.3158 5.56539 12.2431 5.38672 12.2421C5.38488 12.2421 5.38296 12.2421 5.37914 12.2421C5.33661 12.2421 5.31535 12.2421 5.29736 12.2419C4.63926 12.2348 4.02703 12.0372 3.51315 11.7017C2.6115 11.113 2.01266 10.0995 2.00019 8.94474C2 8.92675 2 8.90549 2 8.86296V6.78755Z" fill="white"/>
<path d="M5.86606 12.4493L5.3257 12.9694L5.3257 12.9694L5.86606 12.4493ZM5.8608 12.4438L5.32331 12.9669L5.8608 12.4438ZM5.38672 12.2421L5.39086 11.4921L5.38672 12.2421ZM10.6133 12.2421L10.6091 11.4921L10.6133 12.2421ZM10.1339 12.4493L9.59358 11.9292L9.59357 11.9292L10.1339 12.4493ZM10.1392 12.4438L10.6767 12.9669L10.1392 12.4438ZM9.9213 12.6702L10.4617 13.1903L9.9213 12.6702ZM6.0787 12.6702L6.61907 12.1501L6.61907 12.1501L6.0787 12.6702ZM8 14.077V14.827V14.077ZM2.00019 8.94474L1.25024 8.95283L2.00019 8.94474ZM5.29736 12.2419L5.28927 12.9919L5.29736 12.2419ZM13.9998 8.94474L14.7498 8.95283L13.9998 8.94474ZM10.7026 12.2419L10.7107 12.9919L10.7026 12.2419ZM12.2642 1.74075L11.9047 2.399L12.2642 1.74075ZM13.5923 3.06884L12.934 3.42828L13.5923 3.06884ZM3.73584 1.74075L4.09527 2.399L3.73584 1.74075ZM2.40774 3.06884L3.066 3.42828L2.40774 3.06884ZM3.51315 11.7017L3.10311 12.3297L3.51315 11.7017ZM12.4868 11.7017L12.8969 12.3297L12.4868 11.7017ZM9.91667 5.33301C9.91667 6.39155 9.05855 7.24967 8 7.24967V8.74967C9.88697 8.74967 11.4167 7.21998 11.4167 5.33301H9.91667ZM8 7.24967C6.94145 7.24967 6.08333 6.39155 6.08333 5.33301H4.58333C4.58333 7.21998 6.11303 8.74967 8 8.74967V7.24967ZM6.08333 5.33301C6.08333 4.27446 6.94145 3.41634 8 3.41634V1.91634C6.11303 1.91634 4.58333 3.44603 4.58333 5.33301H6.08333ZM8 3.41634C9.05855 3.41634 9.91667 4.27446 9.91667 5.33301H11.4167C11.4167 3.44603 9.88697 1.91634 8 1.91634V3.41634ZM7.45455 2.08301H8.54545V0.583008H7.45455V2.08301ZM13.25 6.78756V8.86297H14.75V6.78756H13.25ZM2.75 8.86296V6.78755H1.25V8.86296H2.75ZM9.59357 11.9292L9.38093 12.1501L10.4617 13.1903L10.6743 12.9694L9.59357 11.9292ZM6.61907 12.1501L6.40642 11.9292L5.3257 12.9694L5.53834 13.1903L6.61907 12.1501ZM6.40643 11.9292C6.40444 11.9271 6.40137 11.9239 6.39828 11.9207L5.32331 12.9669C5.32279 12.9664 5.32237 12.9659 5.3257 12.9694L6.40643 11.9292ZM5.37914 12.9921C5.38379 12.9921 5.38329 12.9921 5.38257 12.9921L5.39086 11.4921C5.38646 11.4921 5.38213 11.4921 5.37914 11.4921V12.9921ZM6.39828 11.9207C6.13348 11.6486 5.77054 11.4942 5.39086 11.4921L5.38257 12.9921C5.36024 12.992 5.33889 12.9829 5.32331 12.9669L6.39828 11.9207ZM10.6209 11.4921C10.6179 11.4921 10.6135 11.4921 10.6091 11.4921L10.6174 12.9921C10.6167 12.9921 10.6162 12.9921 10.6209 12.9921V11.4921ZM10.6743 12.9694C10.6774 12.9662 10.6771 12.9664 10.6767 12.9669L9.60172 11.9207C9.5987 11.9238 9.59582 11.9268 9.59358 11.9292L10.6743 12.9694ZM10.6091 11.4921C10.2295 11.4942 9.86652 11.6486 9.60172 11.9207L10.6767 12.9669C10.6611 12.9829 10.6398 12.992 10.6174 12.9921L10.6091 11.4921ZM9.38093 12.1501C8.91459 12.6346 8.61685 12.9416 8.36974 13.1369C8.1397 13.3188 8.04659 13.327 8 13.327V14.827C8.52068 14.827 8.93687 14.6007 9.29999 14.3136C9.64604 14.0401 10.0253 13.6436 10.4617 13.1903L9.38093 12.1501ZM5.53834 13.1903C5.97468 13.6436 6.35396 14.0401 6.70001 14.3136C7.06313 14.6007 7.47932 14.827 8 14.827V13.327C7.95341 13.327 7.8603 13.3188 7.63026 13.1369C7.38315 12.9416 7.0854 12.6346 6.61907 12.1501L5.53834 13.1903ZM1.25 8.86296C1.25 8.90353 1.24999 8.92978 1.25024 8.95283L2.75015 8.93664C2.75001 8.92373 2.75 8.90745 2.75 8.86296H1.25ZM5.37914 11.4921C5.33463 11.4921 5.31837 11.4921 5.30545 11.4919L5.28927 12.9919C5.31233 12.9921 5.33859 12.9921 5.37914 12.9921V11.4921ZM13.25 8.86297C13.25 8.90743 13.25 8.92372 13.2498 8.93664L14.7498 8.95283C14.75 8.92978 14.75 8.90355 14.75 8.86297H13.25ZM10.6209 12.9921C10.6614 12.9921 10.6877 12.9921 10.7107 12.9919L10.6945 11.4919C10.6816 11.4921 10.6654 11.4921 10.6209 11.4921V12.9921ZM8.54545 2.08301C9.54927 2.08301 10.2543 2.08366 10.8031 2.13118C11.3423 2.17787 11.6602 2.26549 11.9047 2.399L12.6236 1.08249C12.1214 0.80826 11.5706 0.692018 10.9325 0.63677C10.304 0.582352 9.52297 0.583008 8.54545 0.583008V2.08301ZM14.75 6.78756C14.75 5.81004 14.7507 5.02905 14.6962 4.40053C14.641 3.76242 14.5247 3.21161 14.2505 2.70941L12.934 3.42828C13.0675 3.67279 13.1551 3.99068 13.2018 4.52991C13.2493 5.07873 13.25 5.78374 13.25 6.78756H14.75ZM11.9047 2.399C12.3394 2.63635 12.6967 2.99362 12.934 3.42828L14.2505 2.70941C13.8754 2.02237 13.3106 1.45764 12.6236 1.08249L11.9047 2.399ZM7.45455 0.583008C6.47703 0.583008 5.69604 0.582352 5.06752 0.63677C4.42941 0.692018 3.87861 0.80826 3.3764 1.08249L4.09527 2.399C4.33978 2.26549 4.65767 2.17787 5.1969 2.13118C5.74572 2.08366 6.45073 2.08301 7.45455 2.08301V0.583008ZM2.75 6.78755C2.75 5.78373 2.75066 5.07873 2.79817 4.52991C2.84486 3.99068 2.93249 3.67279 3.066 3.42828L1.74948 2.70941C1.47525 3.21161 1.35901 3.76241 1.30376 4.40052C1.24934 5.02905 1.25 5.81004 1.25 6.78755H2.75ZM3.3764 1.08249C2.68936 1.45764 2.12463 2.02237 1.74948 2.70941L3.066 3.42828C3.30334 2.99362 3.66061 2.63635 4.09527 2.399L3.3764 1.08249ZM6 10.7497H10V9.24967H6V10.7497ZM6 9.24967C4.54771 9.24967 3.30882 10.1555 2.81398 11.4303L4.21233 11.9731C4.49069 11.256 5.18714 10.7497 6 10.7497V9.24967ZM1.25024 8.95283C1.26551 10.3681 2.00037 11.6096 3.10311 12.3297L3.9232 11.0737C3.22263 10.6163 2.7598 9.83083 2.75015 8.93664L1.25024 8.95283ZM3.10311 12.3297C3.73307 12.741 4.48413 12.9832 5.28927 12.9919L5.30545 11.4919C4.7944 11.4864 4.32099 11.3335 3.9232 11.0737L3.10311 12.3297ZM10 10.7497C10.8129 10.7497 11.5093 11.256 11.7877 11.9731L13.186 11.4303C12.6912 10.1555 11.4523 9.24967 10 9.24967V10.7497ZM13.2498 8.93664C13.2402 9.83083 12.7774 10.6163 12.0768 11.0737L12.8969 12.3297C13.9996 11.6096 14.7345 10.3681 14.7498 8.95283L13.2498 8.93664ZM12.0768 11.0737C11.679 11.3335 11.2056 11.4864 10.6945 11.4919L10.7107 12.9919C11.5159 12.9832 12.2669 12.741 12.8969 12.3297L12.0768 11.0737Z" fill="#00A991"/>
</svg>
