<svg width="25" height="24" viewBox="0 0 25 24" fill="none" xmlns="http://www.w3.org/2000/svg">
<path d="M14.5 12C14.5 13.1046 13.6046 14 12.5 14C11.3954 14 10.5 13.1046 10.5 12C10.5 10.8954 11.3954 10 12.5 10C13.6046 10 14.5 10.8954 14.5 12Z" stroke="#2D264B" stroke-width="1.5"/>
<path d="M14.5 4C14.5 5.10457 13.6046 6 12.5 6C11.3954 6 10.5 5.10457 10.5 4C10.5 2.89543 11.3954 2 12.5 2C13.6046 2 14.5 2.89543 14.5 4Z" stroke="#2D264B" stroke-width="1.5"/>
<path d="M14.5 20C14.5 21.1046 13.6046 22 12.5 22C11.3954 22 10.5 21.1046 10.5 20C10.5 18.8954 11.3954 18 12.5 18C13.6046 18 14.5 18.8954 14.5 20Z" stroke="#2D264B" stroke-width="1.5"/>
</svg>
