<svg width="25" height="24" viewBox="0 0 25 24" fill="none" xmlns="http://www.w3.org/2000/svg">
<path d="M8.54303 8.70703C8.15203 8.31603 8.15203 7.68397 8.54303 7.29297C8.93403 6.90197 9.56597 6.90197 9.95697 7.29297L11.25 8.58606V4C11.25 3.447 11.698 3 12.25 3C12.802 3 13.25 3.447 13.25 4V8.58606L14.543 7.29297C14.934 6.90197 15.566 6.90197 15.957 7.29297C16.348 7.68397 16.348 8.31603 15.957 8.70703L12.957 11.707C12.762 11.902 12.506 12 12.25 12C11.994 12 11.738 11.902 11.543 11.707L8.54303 8.70703ZM17.25 10C16.698 10 16.25 10.447 16.25 11C16.25 11.553 16.698 12 17.25 12C18.904 12 20.25 13.346 20.25 15V16C20.25 17.654 18.904 19 17.25 19H7.25C5.596 19 4.25 17.654 4.25 16V15C4.25 13.346 5.596 12 7.25 12C7.802 12 8.25 11.553 8.25 11C8.25 10.447 7.802 10 7.25 10C4.493 10 2.25 12.243 2.25 15V16C2.25 18.757 4.493 21 7.25 21H17.25C20.007 21 22.25 18.757 22.25 16V15C22.25 12.243 20.007 10 17.25 10ZM18.25 15C18.25 14.448 17.802 14 17.25 14C16.698 14 16.25 14.448 16.25 15C16.25 15.552 16.698 16 17.25 16C17.802 16 18.25 15.552 18.25 15Z" fill="white"/>
</svg>
