<svg width="80" height="80" viewBox="0 0 80 80" fill="none" xmlns="http://www.w3.org/2000/svg">
<path d="M56.666 10H23.3327C14.1427 10 6.66602 17.4767 6.66602 26.6667V53.3333C6.66602 62.5233 14.1427 70 23.3327 70H56.666C65.856 70 73.3327 62.5233 73.3327 53.3333V26.6667C73.3327 17.4767 65.856 10 56.666 10ZM23.3327 16.6667H56.666C62.1793 16.6667 66.666 21.1533 66.666 26.6667V41.9531L54.7227 30.0098C52.1194 27.4064 47.8793 27.4064 45.276 30.0098L29.9993 45.2865L28.056 43.3431C25.4527 40.7398 21.2127 40.7398 18.6093 43.3431L13.3327 48.6198V26.6667C13.3327 21.1533 17.8193 16.6667 23.3327 16.6667ZM21.666 30C21.666 27.24 23.906 25 26.666 25C29.426 25 31.666 27.24 31.666 30C31.666 32.76 29.426 35 26.666 35C23.906 35 21.666 32.76 21.666 30Z" fill="#F2F2F2"/>
</svg>
