<svg width="18" height="16" viewBox="0 0 18 16" fill="none" xmlns="http://www.w3.org/2000/svg">
<path fill-rule="evenodd" clip-rule="evenodd" d="M16.7455 1.32169L2.85977 15.2578C2.5585 15.5601 2.07006 15.5601 1.7688 15.2578C1.46754 14.9554 1.46754 14.4652 1.7688 14.1628L2.51323 13.4157C1.91868 12.8439 1.38692 12.1785 0.937993 11.4208C-0.312665 9.30994 -0.312664 6.69074 0.937993 4.5799C3.82254 -0.288597 10.0431 -1.26702 14.2796 1.60666L15.6545 0.226766C15.9558 -0.0755885 16.4442 -0.0755885 16.7455 0.226766C17.0467 0.52912 17.0467 1.01933 16.7455 1.32169ZM10.0857 5.81572C9.75776 5.65515 9.38936 5.56526 8.99948 5.56526C7.6298 5.56526 6.5196 6.67917 6.5196 8.05517C6.5196 8.44637 6.60908 8.81577 6.76887 9.14463L10.0857 5.81572Z" fill="#091029"/>
<path d="M16.0047 4.31014C16.3709 4.09159 16.8443 4.21237 17.062 4.57989C18.3127 6.69073 18.3127 9.30993 17.062 11.4208C14.6482 15.4948 9.89457 16.8419 5.93695 15.4961C5.53343 15.3589 5.31715 14.9193 5.45387 14.5144C5.59059 14.1094 6.02854 13.8923 6.43206 14.0295C9.76462 15.1628 13.7281 14.018 15.7359 10.6293C16.6976 9.00627 16.6976 6.9944 15.7359 5.37131C15.5181 5.00379 15.6385 4.52869 16.0047 4.31014Z" fill="#091029"/>
<path d="M12.2518 7.28093C12.6779 7.28093 13.0233 7.62756 13.0233 8.05515C13.0233 10.2855 11.2211 12.0925 8.99949 12.0925C8.57344 12.0925 8.22806 11.7459 8.22806 11.3183C8.22806 10.8907 8.57344 10.544 8.99949 10.544C10.3696 10.544 11.4804 9.42964 11.4804 8.05515C11.4804 7.62756 11.8258 7.28093 12.2518 7.28093Z" fill="#091029"/>
</svg>
