<svg width="25" height="24" viewBox="0 0 25 24" fill="none" xmlns="http://www.w3.org/2000/svg">
<path d="M22.2107 11.045C22.5147 11.471 22.6667 11.685 22.6667 12C22.6667 12.316 22.5147 12.529 22.2107 12.955C20.8447 14.871 17.3557 19 12.6667 19C7.97675 19 4.48875 14.87 3.12275 12.955C2.81875 12.529 2.66675 12.315 2.66675 12C2.66675 11.684 2.81875 11.471 3.12275 11.045C4.48875 9.129 7.97775 5 12.6667 5C17.3567 5 20.8447 9.13 22.2107 11.045Z" stroke="black" stroke-width="1.5" stroke-linecap="round" stroke-linejoin="round"/>
<path d="M15.6667 12C15.6667 11.2044 15.3507 10.4413 14.7881 9.87868C14.2255 9.31607 13.4624 9 12.6667 9C11.8711 9 11.108 9.31607 10.5454 9.87868C9.98282 10.4413 9.66675 11.2044 9.66675 12C9.66675 12.7956 9.98282 13.5587 10.5454 14.1213C11.108 14.6839 11.8711 15 12.6667 15C13.4624 15 14.2255 14.6839 14.7881 14.1213C15.3507 13.5587 15.6667 12.7956 15.6667 12Z" stroke="black" stroke-width="1.5" stroke-linecap="round" stroke-linejoin="round"/>
</svg>