<svg width="24" height="24" viewBox="0 0 24 24" fill="none" xmlns="http://www.w3.org/2000/svg">
<path d="M17.342 9.48369C17.202 9.2031 17.202 8.86838 17.342 8.58678L19.895 3.47106C20.05 3.16041 20.033 2.79161 19.851 2.49599C19.669 2.20137 19.347 2.021 19 2.021H9C6.243 2.021 4 4.26872 4 7.03152V21.0189C4 21.5731 4.448 22.021 5 22.021C5.552 22.021 6 21.5731 6 21.0189V16.0505H19C19.347 16.0505 19.668 15.8701 19.851 15.5745C20.034 15.2789 20.05 14.9101 19.895 14.5994L17.342 9.48369ZM6 14.0462V7.03152C6 5.37404 7.346 4.0252 9 4.0252H17.382L15.553 7.69086C15.133 8.53263 15.133 9.53882 15.553 10.3806L17.382 14.0462H6Z" fill="#999999"/>
</svg>
