<svg width="22" height="18" viewBox="0 0 22 18" fill="none" xmlns="http://www.w3.org/2000/svg">
<path fill-rule="evenodd" clip-rule="evenodd" d="M12.4822 0.951328C14.51 1.42655 16.1316 2.91484 16.6838 4.83499L17.458 4.37444C19.4352 3.1981 22 4.55122 22 6.77073L22 11.5944C22 13.6951 19.6776 15.0613 17.7037 14.1219L16.5485 13.572C15.8965 15.2938 14.3643 16.6076 12.4822 17.0487C9.93453 17.6457 7.24347 17.653 4.69246 17.0551C2.59198 16.5629 0.965465 14.9809 0.493659 12.9713L0.42818 12.6925C-0.142727 10.2608 -0.142726 7.73919 0.42818 5.30754L0.49366 5.02865C0.965466 3.0191 2.59198 1.43714 4.69246 0.944882C7.24347 0.347039 9.93454 0.354263 12.4822 0.951328ZM16.9906 11.8481C17.3134 10.1277 17.3414 8.36975 17.0745 6.64278L18.4213 5.84156C19.188 5.38543 20.1825 5.9101 20.1825 6.77073L20.1825 11.5944C20.1825 12.4089 19.2819 12.9387 18.5166 12.5744L16.9906 11.8481Z" fill="#999999"/>
</svg>
