<svg width="15" height="12" viewBox="0 0 15 12" fill="none" xmlns="http://www.w3.org/2000/svg">
<path d="M10.834 0H4.16732C2.32932 0 0.833984 1.49533 0.833984 3.33333V8.66667C0.833984 8.93667 0.874646 9.19463 0.935313 9.44596C0.944646 9.47863 0.95065 9.51001 0.96465 9.54134C1.35198 10.9533 2.63331 12 4.16665 12H10.8333C12.6713 12 14.1666 10.5047 14.1666 8.66667V3.33333C14.1673 1.49533 12.672 0 10.834 0ZM4.16732 1.33333H10.834C11.9367 1.33333 12.834 2.23067 12.834 3.33333V6.39062L10.4453 4.0013C9.92466 3.48197 9.07732 3.48129 8.55665 4.00195L5.50132 7.05729L5.11265 6.66797C4.59198 6.14864 3.74466 6.14795 3.22399 6.66862L2.16865 7.72396V3.33333C2.16732 2.23067 3.06465 1.33333 4.16732 1.33333ZM10.834 10.6667H4.16732C3.34265 10.6667 2.63332 10.1647 2.32798 9.45003L4.16932 7.61133L4.79665 8.23861C5.18532 8.62594 5.81732 8.62662 6.20532 8.23796L9.50266 4.94466L12.834 8.27604V8.66667C12.834 9.76933 11.9367 10.6667 10.834 10.6667ZM3.83398 4C3.83398 3.448 4.28198 3 4.83398 3C5.38598 3 5.83398 3.448 5.83398 4C5.83398 4.552 5.38598 5 4.83398 5C4.28198 5 3.83398 4.552 3.83398 4Z" fill="#41416E"/>
</svg>
