<svg width="68" height="60" viewBox="0 0 68 60" fill="none" xmlns="http://www.w3.org/2000/svg">
<path d="M50.667 0H17.3337C8.14366 0 0.666992 7.47667 0.666992 16.6667V43.3333C0.666992 52.5233 8.14366 60 17.3337 60H50.667C59.857 60 67.3337 52.5233 67.3337 43.3333V16.6667C67.3337 7.47667 59.857 0 50.667 0ZM17.3337 6.66667H50.667C56.1803 6.66667 60.667 11.1533 60.667 16.6667V31.9531L48.7237 20.0098C46.1204 17.4064 41.8803 17.4064 39.277 20.0098L24.0003 35.2865L22.057 33.3431C19.4537 30.7398 15.2136 30.7398 12.6103 33.3431L7.33366 38.6198V16.6667C7.33366 11.1533 11.8203 6.66667 17.3337 6.66667ZM15.667 20C15.667 17.24 17.907 15 20.667 15C23.427 15 25.667 17.24 25.667 20C25.667 22.76 23.427 25 20.667 25C17.907 25 15.667 22.76 15.667 20Z" fill="#41416E"/>
</svg>
