<svg width="51" height="50" viewBox="0 0 51 50" fill="none" xmlns="http://www.w3.org/2000/svg">
<path d="M25.8003 18.7503C24.1427 18.7503 22.5529 19.4088 21.3808 20.5809C20.2087 21.753 19.5503 23.3427 19.5503 25.0003C19.5503 26.6579 20.2087 28.2476 21.3808 29.4197C22.5529 30.5918 24.1427 31.2503 25.8003 31.2503C27.4579 31.2503 29.0476 30.5918 30.2197 29.4197C31.3918 28.2476 32.0503 26.6579 32.0503 25.0003C32.0503 23.3427 31.3918 21.753 30.2197 20.5809C29.0476 19.4088 27.4579 18.7503 25.8003 18.7503ZM25.8003 14.5837C28.5629 14.5837 31.2125 15.6811 33.166 17.6346C35.1195 19.5881 36.2169 22.2377 36.2169 25.0003C36.2169 27.763 35.1195 30.4125 33.166 32.366C31.2125 34.3195 28.5629 35.417 25.8003 35.417C23.0376 35.417 20.3881 34.3195 18.4346 32.366C16.4811 30.4125 15.3836 27.763 15.3836 25.0003C15.3836 22.2377 16.4811 19.5881 18.4346 17.6346C20.3881 15.6811 23.0376 14.5837 25.8003 14.5837ZM39.3419 14.0628C39.3419 14.7535 39.0676 15.4159 38.5792 15.9043C38.0908 16.3926 37.4284 16.667 36.7378 16.667C36.0471 16.667 35.3847 16.3926 34.8963 15.9043C34.408 15.4159 34.1336 14.7535 34.1336 14.0628C34.1336 13.3722 34.408 12.7098 34.8963 12.2214C35.3847 11.733 36.0471 11.4587 36.7378 11.4587C37.4284 11.4587 38.0908 11.733 38.5792 12.2214C39.0676 12.7098 39.3419 13.3722 39.3419 14.0628ZM25.8003 8.33366C20.6461 8.33366 19.8044 8.34824 17.4065 8.45449C15.7732 8.53158 14.6773 8.75033 13.6607 9.14616C12.8103 9.45943 12.0413 9.95998 11.4107 10.6107C10.7592 11.2412 10.2579 12.0102 9.94401 12.8607C9.54818 13.8816 9.32943 14.9753 9.25443 16.6066C9.14609 18.9066 9.13151 19.7107 9.13151 25.0003C9.13151 30.1566 9.14609 30.9962 9.25234 33.3941C9.32943 35.0253 9.54818 36.1232 9.94193 37.1378C10.2961 38.0441 10.7128 38.6962 11.4044 39.3878C12.1065 40.0878 12.7586 40.5066 13.6544 40.8524C14.6836 41.2503 15.7794 41.4712 17.4044 41.5462C19.7044 41.6545 20.5086 41.667 25.7982 41.667C30.9544 41.667 31.794 41.6524 34.1919 41.5462C35.8211 41.4691 36.9169 41.2503 37.9357 40.8566C38.786 40.5433 39.555 40.0428 40.1857 39.392C40.8878 38.692 41.3065 38.0399 41.6523 37.142C42.0482 36.117 42.269 35.0212 42.344 33.392C42.4523 31.0941 42.4648 30.2878 42.4648 25.0003C42.4648 19.8462 42.4503 19.0045 42.344 16.6066C42.2669 14.9774 42.0461 13.8774 41.6523 12.8607C41.3391 12.0104 40.8385 11.2414 40.1878 10.6107C39.5573 9.95923 38.7883 9.45795 37.9378 9.14408C36.9169 8.74824 35.8211 8.52949 34.1919 8.45449C31.894 8.34616 31.0898 8.33366 25.7982 8.33366M25.7982 4.16699C31.4586 4.16699 32.1648 4.18783 34.3878 4.29199C36.6044 4.39616 38.1169 4.74408 39.444 5.26074C40.819 5.78991 41.9773 6.50658 43.1357 7.66283C44.1955 8.70394 45.0152 9.96381 45.5378 11.3545C46.0523 12.6816 46.4023 14.1941 46.5065 16.4128C46.6044 18.6337 46.6315 19.3399 46.6315 25.0003C46.6315 30.6607 46.6107 31.367 46.5065 33.5878C46.4023 35.8087 46.0523 37.317 45.5378 38.6462C45.0152 40.0368 44.1955 41.2967 43.1357 42.3378C42.0946 43.3976 40.8347 44.2174 39.444 44.7399C38.1169 45.2545 36.6044 45.6045 34.3878 45.7087C32.1648 45.8066 31.4586 45.8337 25.7982 45.8337C20.1378 45.8337 19.4315 45.8128 17.2086 45.7087C14.9919 45.6045 13.4815 45.2545 12.1523 44.7399C10.7617 44.2174 9.50179 43.3976 8.46068 42.3378C7.4009 41.2967 6.58113 40.0368 6.05859 38.6462C5.54193 37.3191 5.19401 35.8066 5.08984 33.5878C4.98984 31.367 4.96484 30.6607 4.96484 25.0003C4.96484 19.3399 4.98568 18.6337 5.08984 16.4128C5.19401 14.192 5.54193 12.6837 6.05859 11.3545C6.58113 9.96381 7.4009 8.70394 8.46068 7.66283C9.50179 6.60305 10.7617 5.78328 12.1523 5.26074C13.4794 4.74408 14.9898 4.39616 17.2086 4.29199C19.4336 4.19408 20.1398 4.16699 25.8003 4.16699" fill="black"/>
</svg>
