<svg width="20" height="21" viewBox="0 0 20 21" fill="none" xmlns="http://www.w3.org/2000/svg">
<path fill-rule="evenodd" clip-rule="evenodd" d="M9.99992 3C6.30639 3 3.33325 6.08577 3.33325 9.86576C3.33325 11.7423 4.06516 13.7527 5.23614 15.2975C6.40444 16.8388 8.07856 18 9.99992 18C11.9213 18 13.5954 16.8388 14.7637 15.2975C15.9347 13.7527 16.6666 11.7423 16.6666 9.86576C16.6666 6.08577 13.6934 3 9.99992 3ZM7.63801 9.34615C7.63801 8.02917 8.69547 6.96154 9.99992 6.96154C11.3044 6.96154 12.3618 8.02917 12.3618 9.34615C12.3618 10.6631 11.3044 11.7308 9.99992 11.7308C8.69547 11.7308 7.63801 10.6631 7.63801 9.34615ZM9.99992 7.88462C9.20042 7.88462 8.5523 8.53897 8.5523 9.34615C8.5523 10.1533 9.20042 10.8077 9.99992 10.8077C10.7994 10.8077 11.4475 10.1533 11.4475 9.34615C11.4475 8.53897 10.7994 7.88462 9.99992 7.88462Z" fill="#999999"/>
</svg>
