<svg width="16" height="16" viewBox="0 0 16 16" fill="none" xmlns="http://www.w3.org/2000/svg">
<path fill-rule="evenodd" clip-rule="evenodd" d="M7.99935 2C5.04453 2 2.66602 4.46862 2.66602 7.49261C2.66602 8.99384 3.25154 10.6021 4.18833 11.838C5.12297 13.071 6.46226 14 7.99935 14C9.53643 14 10.8757 13.071 11.8104 11.838C12.7472 10.6021 13.3327 8.99384 13.3327 7.49261C13.3327 4.46862 10.9542 2 7.99935 2ZM6.10982 7.07692C6.10982 6.02333 6.95579 5.16923 7.99935 5.16923C9.0429 5.16923 9.88887 6.02333 9.88887 7.07692C9.88887 8.13051 9.0429 8.98462 7.99935 8.98462C6.95579 8.98462 6.10982 8.13051 6.10982 7.07692ZM7.99935 5.90769C7.35975 5.90769 6.84125 6.43117 6.84125 7.07692C6.84125 7.72267 7.35975 8.24615 7.99935 8.24615C8.63895 8.24615 9.15744 7.72267 9.15744 7.07692C9.15744 6.43117 8.63895 5.90769 7.99935 5.90769Z" fill="#00A991"/>
</svg>
