<svg width="129" height="122" viewBox="0 0 129 122" fill="none" xmlns="http://www.w3.org/2000/svg">
<path d="M7.5337 41.3047C11.7378 24.374 25.1626 11.2834 42.191 7.51012L45.0277 6.88155C57.8538 4.03948 71.1463 4.03948 83.9724 6.88155L86.809 7.51011C103.837 11.2834 117.262 24.374 121.466 41.3047C124.678 54.2384 124.678 67.7616 121.466 80.6953C117.262 97.626 103.837 110.717 86.809 114.49L83.9723 115.118C71.1463 117.961 57.8537 117.961 45.0277 115.118L42.191 114.49C25.1626 110.717 11.7378 97.6261 7.53371 80.6954C4.3221 67.7616 4.3221 54.2384 7.5337 41.3047Z" fill="white"/>
<path d="M16.3891 26.6275L52.5155 52.4377C59.6846 57.5597 69.3154 57.5597 76.4845 52.4377L112.611 26.6275M7.53371 80.6954C4.3221 67.7616 4.3221 54.2384 7.5337 41.3047C11.7378 24.374 25.1626 11.2834 42.191 7.51012L45.0277 6.88155C57.8538 4.03948 71.1463 4.03948 83.9724 6.88155L86.809 7.51011C103.837 11.2834 117.262 24.374 121.466 41.3047C124.678 54.2384 124.678 67.7616 121.466 80.6953C117.262 97.626 103.837 110.717 86.809 114.49L83.9723 115.118C71.1463 117.961 57.8537 117.961 45.0277 115.118L42.191 114.49C25.1626 110.717 11.7378 97.6261 7.53371 80.6954Z" stroke="#111D4A" stroke-width="9.375" stroke-linecap="round"/>
</svg>
