<svg width="16" height="18" viewBox="0 0 16 18" fill="none" xmlns="http://www.w3.org/2000/svg">
<path d="M4.01274 8.53543C4.28867 10.3882 5.69144 11.8306 7.46179 12.0818L7.57324 12.0976C7.85928 12.1382 8.14922 12.1382 8.43526 12.0976L8.5318 12.0839C10.3104 11.8315 11.719 10.381 11.9934 8.51908C12.2329 6.89423 12.2328 5.23912 11.9932 3.61428C11.7189 1.75331 10.3126 0.30082 8.53534 0.0448426L8.44171 0.0313566C8.15143 -0.0104522 7.85707 -0.0104522 7.56679 0.0313567L7.45825 0.0469893C5.68928 0.301775 4.28872 1.74606 4.01293 3.59791C3.76936 5.2334 3.76917 6.89995 4.01274 8.53543Z" fill="#363853"/>
<path d="M1.95161 8.09527C1.95161 7.67449 1.62666 7.33337 1.22581 7.33337C0.824955 7.33337 0.5 7.67449 0.5 8.09527C0.5 12.1864 3.47261 15.5487 7.27419 15.9319V17.2381C7.27419 17.6589 7.59915 18 8 18C8.40085 18 8.72581 17.6589 8.72581 17.2381V15.9319C12.5274 15.5487 15.5 12.1864 15.5 8.09527C15.5 7.67449 15.175 7.33337 14.7742 7.33337C14.3733 7.33337 14.0484 7.67449 14.0484 8.09527C14.0484 11.6018 11.3404 14.4445 8 14.4445C4.65957 14.4445 1.95161 11.6018 1.95161 8.09527Z" fill="#363853"/>
</svg>
