<svg width="32" height="32" viewBox="0 0 32 32" fill="none" xmlns="http://www.w3.org/2000/svg">
<path fill-rule="evenodd" clip-rule="evenodd" d="M20.7078 4.4404C18.046 3.8532 15.2874 3.8532 12.6256 4.4404L12.0687 4.56324C8.99147 5.24209 6.45327 7.30855 5.14969 10.0874C4.95384 10.5049 5.27436 10.9622 5.73552 10.9622H27.5978C28.059 10.9622 28.3795 10.5049 28.1836 10.0874C26.8801 7.30855 24.3419 5.24209 21.2646 4.56324L20.7078 4.4404ZM4.50264 20.0918C3.96593 17.9399 3.85903 15.7095 4.18197 13.5263C4.22912 13.2076 4.50666 12.9773 4.82887 12.9773H28.5045C28.8267 12.9773 29.1042 13.2076 29.1514 13.5263C29.4743 15.7095 29.3674 17.9399 28.8307 20.0917C27.9129 23.7715 24.9821 26.6167 21.2646 27.4368L20.7078 27.5596C18.046 28.1468 15.2874 28.1468 12.6256 27.5596L12.0687 27.4368C8.35123 26.6167 5.42045 23.7715 4.50264 20.0918ZM9.92114 14.9924C9.36232 14.9924 8.9093 15.4435 8.9093 16C8.9093 16.5564 9.36232 17.0076 9.92114 17.0076H15.3176C15.8764 17.0076 16.3294 16.5564 16.3294 16C16.3294 15.4435 15.8764 14.9924 15.3176 14.9924H9.92114Z" fill="#1A8150"/>
</svg>
