<svg width="86" height="86" viewBox="0 0 86 86" fill="none" xmlns="http://www.w3.org/2000/svg">
<path fill-rule="evenodd" clip-rule="evenodd" d="M28.9367 2.0131C38.1869 -0.156711 47.8138 -0.156713 57.0641 2.0131C70.4227 5.1466 80.8531 15.5771 83.9866 28.9357C86.1565 38.1859 86.1565 47.8128 83.9866 57.0631C80.8531 70.4217 70.4227 80.8522 57.064 83.9857C47.8138 86.1555 38.1869 86.1555 28.9367 83.9856C15.5781 80.8522 5.14759 70.4217 2.01409 57.0631C-0.155737 47.8128 -0.155737 38.1859 2.01409 28.9357C5.14759 15.5771 15.5781 5.1466 28.9367 2.0131ZM57.4531 35.7897C58.4779 34.6916 58.4185 32.9707 57.3205 31.9459C56.2225 30.9211 54.5016 30.9804 53.4768 32.0784L39.5333 47.0178L32.4586 39.9431C31.3965 38.881 29.6746 38.881 28.6126 39.9431C27.5505 41.0051 27.5505 42.7271 28.6126 43.7891L37.6778 52.8543C38.1993 53.3758 38.9102 53.6632 39.6476 53.6505C40.3851 53.6378 41.0857 53.3261 41.5889 52.7869L57.4531 35.7897Z" fill="#111D4A"/>
</svg>
