<svg width="20" height="20" viewBox="0 0 20 20" fill="none" xmlns="http://www.w3.org/2000/svg">
<path d="M6.44091 3.76165C6.81422 2.17963 8.26599 1 10 1C11.734 1 13.1858 2.17963 13.5591 3.76165L13.7151 3.79339C16.1003 4.27888 17.9998 6.03831 18.6215 8.33805C19.1262 10.2049 19.1262 12.1676 18.6215 14.0344C17.9998 16.3342 16.1003 18.0936 13.7151 18.5791L13.2593 18.6718C11.1095 19.1094 8.89046 19.1094 6.74072 18.6718L6.28493 18.5791C3.89969 18.0936 2.0002 16.3342 1.3785 14.0344C0.873833 12.1676 0.873833 10.2049 1.3785 8.33805C2.0002 6.0383 3.89968 4.27888 6.28493 3.79339L6.44091 3.76165Z" stroke="#999999" stroke-width="1.5" stroke-linejoin="round"/>
</svg>
