<svg width="14" height="12" viewBox="0 0 14 12" fill="none" xmlns="http://www.w3.org/2000/svg">
<path d="M3.66667 5.33301C3.66667 4.97939 3.80714 4.64025 4.05719 4.3902C4.30724 4.14015 4.64638 3.99967 5 3.99967H11.6667C12.0203 3.99967 12.3594 4.14015 12.6095 4.3902C12.8595 4.64025 13 4.97939 13 5.33301V9.33301C13 9.68663 12.8595 10.0258 12.6095 10.2758C12.3594 10.5259 12.0203 10.6663 11.6667 10.6663H5C4.64638 10.6663 4.30724 10.5259 4.05719 10.2758C3.80714 10.0258 3.66667 9.68663 3.66667 9.33301V5.33301Z" fill="white"/>
<path d="M7 7.33301C7 7.68663 7.14048 8.02577 7.39052 8.27582C7.64057 8.52587 7.97971 8.66634 8.33333 8.66634C8.68696 8.66634 9.02609 8.52587 9.27614 8.27582C9.52619 8.02577 9.66667 7.68663 9.66667 7.33301C9.66667 6.97939 9.52619 6.64025 9.27614 6.3902C9.02609 6.14015 8.68696 5.99967 8.33333 5.99967C7.97971 5.99967 7.64057 6.14015 7.39052 6.3902C7.14048 6.64025 7 6.97939 7 7.33301Z" fill="white"/>
<path d="M10.3333 3.99967V2.66634C10.3333 2.31272 10.1929 1.97358 9.94281 1.72353C9.69276 1.47348 9.35362 1.33301 9 1.33301H2.33333C1.97971 1.33301 1.64057 1.47348 1.39052 1.72353C1.14048 1.97358 1 2.31272 1 2.66634V6.66634C1 7.01996 1.14048 7.3591 1.39052 7.60915C1.64057 7.8592 1.97971 7.99967 2.33333 7.99967H3.66667" fill="white"/>
<path d="M10.3333 3.99967V2.66634C10.3333 2.31272 10.1929 1.97358 9.94281 1.72353C9.69276 1.47348 9.35362 1.33301 9 1.33301H2.33333C1.97971 1.33301 1.64057 1.47348 1.39052 1.72353C1.14048 1.97358 1 2.31272 1 2.66634V6.66634C1 7.01996 1.14048 7.3591 1.39052 7.60915C1.64057 7.8592 1.97971 7.99967 2.33333 7.99967H3.66667M3.66667 5.33301C3.66667 4.97939 3.80714 4.64025 4.05719 4.3902C4.30724 4.14015 4.64638 3.99967 5 3.99967H11.6667C12.0203 3.99967 12.3594 4.14015 12.6095 4.3902C12.8595 4.64025 13 4.97939 13 5.33301V9.33301C13 9.68663 12.8595 10.0258 12.6095 10.2758C12.3594 10.5259 12.0203 10.6663 11.6667 10.6663H5C4.64638 10.6663 4.30724 10.5259 4.05719 10.2758C3.80714 10.0258 3.66667 9.68663 3.66667 9.33301V5.33301ZM7 7.33301C7 7.68663 7.14048 8.02577 7.39052 8.27582C7.64057 8.52587 7.97971 8.66634 8.33333 8.66634C8.68696 8.66634 9.02609 8.52587 9.27614 8.27582C9.52619 8.02577 9.66667 7.68663 9.66667 7.33301C9.66667 6.97939 9.52619 6.64025 9.27614 6.3902C9.02609 6.14015 8.68696 5.99967 8.33333 5.99967C7.97971 5.99967 7.64057 6.14015 7.39052 6.3902C7.14048 6.64025 7 6.97939 7 7.33301Z" stroke="#1C1B1B" stroke-linecap="round" stroke-linejoin="round"/>
</svg>
