<svg width="40" height="40" viewBox="0 0 40 40" fill="none" xmlns="http://www.w3.org/2000/svg">
<g id="COCO/Bold/Play">
<g id="Vector">
<path fill-rule="evenodd" clip-rule="evenodd" d="M15.0496 5.57283C18.3057 4.80906 21.6944 4.80906 24.9505 5.57283C29.6527 6.67583 33.3243 10.3474 34.4273 15.0496C35.191 18.3057 35.191 21.6944 34.4273 24.9505C33.3243 29.6527 29.6527 33.3243 24.9505 34.4273C21.6944 35.191 18.3057 35.191 15.0496 34.4273C10.3474 33.3243 6.67583 29.6527 5.57283 24.9505C4.80906 21.6944 4.80906 18.3057 5.57283 15.0496C6.67583 10.3474 10.3474 6.67583 15.0496 5.57283ZM17.0095 17.2969C17.0095 16.697 17.2993 16.2386 17.6714 16.0004C18.0375 15.7662 18.4884 15.736 18.9016 16.0004L23.125 18.7032C23.5508 18.9757 23.7869 19.4686 23.7869 19.9997C23.7869 20.5307 23.5508 21.0236 23.125 21.2961L18.9016 23.9989C18.4884 24.2633 18.0375 24.2331 17.6714 23.9989C17.2993 23.7608 17.0095 23.3023 17.0095 22.7024V17.2969ZM19.5485 14.9897C18.7104 14.4533 17.7535 14.5232 17.0246 14.9897C16.3018 15.4523 15.8095 16.2951 15.8095 17.2969L15.8095 22.7024C15.8095 23.7042 16.3018 24.547 17.0246 25.0096C17.7535 25.4761 18.7104 25.546 19.5485 25.0096L23.7718 22.3069C24.5973 21.7786 24.9869 20.87 24.9869 19.9997C24.9869 19.1293 24.5973 18.2208 23.7718 17.6925L19.5485 14.9897Z" fill="black" fill-opacity="0.5"/>
<path d="M24.9505 5.57283L24.8363 6.05962L24.9505 5.57283ZM15.0496 5.57283L15.1638 6.05962L15.0496 5.57283ZM34.4273 15.0496L33.9405 15.1638L34.4273 15.0496ZM34.4273 24.9505L33.9405 24.8363L34.4273 24.9505ZM24.9505 34.4273L25.0647 34.914L24.9505 34.4273ZM15.0496 34.4273L14.9354 34.914L15.0496 34.4273ZM5.57283 24.9505L6.05962 24.8363L5.57283 24.9505ZM5.57283 15.0496L5.08605 14.9354H5.08605L5.57283 15.0496ZM17.6714 16.0004L17.941 16.4216L17.6714 16.0004ZM18.9016 16.0004L19.1712 15.5793L18.9016 16.0004ZM23.125 18.7032L22.8555 19.1243L23.125 18.7032ZM23.125 21.2961L23.3945 21.7173V21.7173L23.125 21.2961ZM18.9016 23.9989L18.6321 23.5777L18.6321 23.5777L18.9016 23.9989ZM17.6714 23.9989L17.4019 24.42L17.4019 24.42L17.6714 23.9989ZM17.0246 14.9897L16.7551 14.5685L17.0246 14.9897ZM19.5485 14.9897L19.818 14.5685L19.5485 14.9897ZM15.8095 17.2969H16.3095H15.8095ZM15.8095 22.7024H15.3095H15.8095ZM17.0246 25.0096L17.2941 24.5885L17.2941 24.5885L17.0246 25.0096ZM19.5485 25.0096L19.279 24.5885L19.279 24.5885L19.5485 25.0096ZM23.7718 22.3069L24.0413 22.728L23.7718 22.3069ZM23.7718 17.6925L23.5023 18.1136L23.7718 17.6925ZM25.0647 5.08605C21.7335 4.30465 18.2666 4.30465 14.9354 5.08605L15.1638 6.05962C18.3448 5.31346 21.6553 5.31346 24.8363 6.05962L25.0647 5.08605ZM34.914 14.9354C33.7677 10.0483 29.9518 6.23241 25.0647 5.08605L24.8363 6.05962C29.3537 7.11925 32.8808 10.6464 33.9405 15.1638L34.914 14.9354ZM34.914 25.0647C35.6954 21.7335 35.6954 18.2666 34.914 14.9354L33.9405 15.1638C34.6866 18.3448 34.6866 21.6553 33.9405 24.8363L34.914 25.0647ZM25.0647 34.914C29.9518 33.7677 33.7677 29.9518 34.914 25.0647L33.9405 24.8363C32.8808 29.3537 29.3537 32.8808 24.8363 33.9405L25.0647 34.914ZM14.9354 34.914C18.2666 35.6954 21.7335 35.6954 25.0647 34.914L24.8363 33.9405C21.6553 34.6866 18.3448 34.6866 15.1638 33.9405L14.9354 34.914ZM5.08605 25.0647C6.23241 29.9518 10.0483 33.7677 14.9354 34.914L15.1638 33.9405C10.6464 32.8808 7.11925 29.3537 6.05962 24.8363L5.08605 25.0647ZM5.08605 14.9354C4.30465 18.2666 4.30465 21.7335 5.08605 25.0647L6.05962 24.8363C5.31346 21.6553 5.31346 18.3448 6.05962 15.1638L5.08605 14.9354ZM14.9354 5.08605C10.0483 6.23241 6.23241 10.0483 5.08605 14.9354L6.05962 15.1638C7.11925 10.6464 10.6464 7.11925 15.1638 6.05962L14.9354 5.08605ZM17.4019 15.5793C16.8838 15.9109 16.5095 16.5295 16.5095 17.2969H17.5095C17.5095 16.8646 17.7149 16.5662 17.941 16.4216L17.4019 15.5793ZM19.1712 15.5793C18.5818 15.2021 17.9201 15.2477 17.4019 15.5793L17.941 16.4216C18.1549 16.2847 18.395 16.2698 18.6321 16.4216L19.1712 15.5793ZM23.3945 18.2821L19.1712 15.5793L18.6321 16.4216L22.8555 19.1243L23.3945 18.2821ZM24.2869 19.9997C24.2869 19.326 23.986 18.6606 23.3945 18.2821L22.8555 19.1243C23.1157 19.2908 23.2869 19.6111 23.2869 19.9997H24.2869ZM23.3945 21.7173C23.986 21.3387 24.2869 20.6733 24.2869 19.9997H23.2869C23.2869 20.3882 23.1156 20.7085 22.8555 20.875L23.3945 21.7173ZM19.1712 24.42L23.3945 21.7173L22.8555 20.875L18.6321 23.5777L19.1712 24.42ZM17.4019 24.42C17.9201 24.7517 18.5818 24.7972 19.1712 24.42L18.6321 23.5777C18.395 23.7295 18.1549 23.7146 17.941 23.5777L17.4019 24.42ZM16.5095 22.7024C16.5095 23.4699 16.8838 24.0884 17.4019 24.42L17.941 23.5777C17.7149 23.4331 17.5095 23.1347 17.5095 22.7024H16.5095ZM16.5095 17.2969V22.7024H17.5095V17.2969H16.5095ZM17.2941 15.4108C17.8723 15.0408 18.6183 14.9881 19.279 15.4108L19.818 14.5685C18.8024 13.9186 17.6347 14.0057 16.7551 14.5685L17.2941 15.4108ZM16.3095 17.2969C16.3095 16.4625 16.7175 15.7799 17.2941 15.4108L16.7551 14.5685C15.886 15.1247 15.3095 16.1277 15.3095 17.2969H16.3095ZM16.3095 22.7024L16.3095 17.2969H15.3095L15.3095 22.7024H16.3095ZM17.2941 24.5885C16.7175 24.2195 16.3095 23.5368 16.3095 22.7024H15.3095C15.3095 23.8716 15.886 24.8746 16.7551 25.4308L17.2941 24.5885ZM19.279 24.5885C18.6183 25.0113 17.8723 24.9585 17.2941 24.5885L16.7551 25.4308C17.6347 25.9937 18.8024 26.0807 19.818 25.4308L19.279 24.5885ZM23.5023 21.8857L19.279 24.5885L19.818 25.4308L24.0413 22.728L23.5023 21.8857ZM24.4869 19.9997C24.4869 20.7293 24.1608 21.4643 23.5023 21.8857L24.0413 22.728C25.0339 22.0928 25.4869 21.0107 25.4869 19.9997H24.4869ZM23.5023 18.1136C24.1608 18.535 24.4869 19.27 24.4869 19.9997H25.4869C25.4869 18.9886 25.0339 17.9065 24.0413 17.2713L23.5023 18.1136ZM19.279 15.4108L23.5023 18.1136L24.0413 17.2713L19.818 14.5685L19.279 15.4108Z" fill="white"/>
</g>
</g>
</svg>
