<svg
  width="22"
  height="20"
  viewBox="0 0 22 20"
  fill="none"
  xmlns="http://www.w3.org/2000/svg"
>
  <path
    d="M1.88539 13.1513L2.61329 12.9705L1.88539 13.1513ZM1.88539 6.84875L2.61329 7.02949L1.88539 6.84875ZM20.1146 6.84875L20.8425 6.66801L20.1146 6.84875ZM20.1146 13.1512L19.3867 12.9705L20.1146 13.1512ZM14.1156 18.659L13.9533 17.9267H13.9533L14.1156 18.659ZM7.88443 18.659L8.04668 17.9267L7.88443 18.659ZM7.88443 1.34105L8.04668 2.07329L7.88443 1.34105ZM14.1156 1.34105L14.2778 0.60881V0.60881L14.1156 1.34105ZM7.43056 18.5584L7.2683 19.2906L7.43056 18.5584ZM14.5694 18.5584L14.7317 19.2906H14.7317L14.5694 18.5584ZM14.5694 1.44162L14.4072 2.17386V2.17386L14.5694 1.44162ZM7.43056 1.44162L7.2683 0.70938V0.70938L7.43056 1.44162ZM17.6933 12.5037L17.5588 13.2415L17.5588 13.2415L17.6933 12.5037ZM17.6347 12.493L17.7693 11.7551L17.7693 11.7551L17.6347 12.493ZM17.6347 7.50703L17.7693 8.24487L17.7693 8.24487L17.6347 7.50703ZM17.6933 7.49635L17.5588 6.75851L17.5588 6.75851L17.6933 7.49635ZM20 8.4873C20.3795 8.6533 20.8217 8.48023 20.9877 8.10073C21.1537 7.72124 20.9807 7.27902 20.6012 7.11302L20 8.4873ZM20.6012 12.887C20.9807 12.721 21.1537 12.2788 20.9877 11.8993C20.8217 11.5198 20.3795 11.3467 20 11.5127L20.6012 12.887ZM15.5782 10.6282L14.857 10.8342L15.5782 10.6282ZM15.5782 9.37178L16.2993 9.57778L15.5782 9.37178ZM7.43056 1.44162L7.59281 2.17386L8.04668 2.07329L7.88443 1.34105L7.72218 0.608809L7.2683 0.70938L7.43056 1.44162ZM14.1156 1.34105L13.9533 2.07329L14.4072 2.17386L14.5694 1.44162L14.7317 0.709379L14.2778 0.60881L14.1156 1.34105ZM14.5694 18.5584L14.4072 17.8261L13.9533 17.9267L14.1156 18.659L14.2778 19.3912L14.7317 19.2906L14.5694 18.5584ZM7.88443 18.659L8.04668 17.9267L7.59281 17.8261L7.43056 18.5584L7.2683 19.2906L7.72218 19.3912L7.88443 18.659ZM1.88539 13.1513L2.61329 12.9705C2.1289 11.0198 2.1289 8.9802 2.61329 7.02949L1.88539 6.84875L1.1575 6.668C0.614168 8.8561 0.614167 11.1439 1.1575 13.332L1.88539 13.1513ZM20.1146 6.84875L19.3867 7.0295C19.8711 8.9802 19.8711 11.0198 19.3867 12.9705L20.1146 13.1512L20.8425 13.332C21.3858 11.1439 21.3858 8.8561 20.8425 6.66801L20.1146 6.84875ZM14.1156 18.659L13.9533 17.9267C12.008 18.3578 9.99198 18.3578 8.04668 17.9267L7.88443 18.659L7.72218 19.3912C9.88122 19.8696 12.1188 19.8696 14.2778 19.3912L14.1156 18.659ZM7.88443 1.34105L8.04668 2.07329C9.99198 1.64224 12.008 1.64224 13.9533 2.07329L14.1156 1.34105L14.2778 0.60881C12.1188 0.130397 9.88122 0.130397 7.72218 0.608809L7.88443 1.34105ZM7.43056 18.5584L7.59281 17.8261C5.14627 17.284 3.21736 15.4032 2.61329 12.9705L1.88539 13.1513L1.1575 13.332C1.89874 16.3171 4.26576 18.6253 7.2683 19.2906L7.43056 18.5584ZM14.5694 18.5584L14.7317 19.2906C17.7342 18.6253 20.1013 16.3171 20.8425 13.332L20.1146 13.1512L19.3867 12.9705C18.7826 15.4032 16.8537 17.284 14.4072 17.8261L14.5694 18.5584ZM14.5694 1.44162L14.4072 2.17386C16.8537 2.71598 18.7826 4.5968 19.3867 7.0295L20.1146 6.84875L20.8425 6.66801C20.1013 3.68288 17.7342 1.3747 14.7317 0.709379L14.5694 1.44162ZM7.43056 1.44162L7.2683 0.70938C4.26576 1.3747 1.89874 3.68288 1.1575 6.668L1.88539 6.84875L2.61329 7.02949C3.21736 4.59679 5.14627 2.71598 7.59281 2.17386L7.43056 1.44162ZM17.6933 12.5037L17.8279 11.7658L17.7693 11.7551L17.6347 12.493L17.5002 13.2308L17.5588 13.2415L17.6933 12.5037ZM17.6347 7.50703L17.7693 8.24487L17.8279 8.23418L17.6933 7.49635L17.5588 6.75851L17.5002 6.7692L17.6347 7.50703ZM17.6933 7.49635L17.8279 8.23418C18.561 8.10052 19.3173 8.18864 20 8.4873L20.3006 7.80016L20.6012 7.11302C19.6449 6.69473 18.5856 6.57129 17.5588 6.75851L17.6933 7.49635ZM17.6933 12.5037L17.5588 13.2415C18.5856 13.4287 19.6449 13.3053 20.6012 12.887L20.3006 12.1998L20 11.5127C19.3173 11.8114 18.561 11.8995 17.8279 11.7658L17.6933 12.5037ZM15.5782 10.6282L16.2993 10.4222C16.2205 10.1463 16.2205 9.85374 16.2993 9.57778L15.5782 9.37178L14.857 9.16579C14.7013 9.71102 14.7013 10.289 14.857 10.8342L15.5782 10.6282ZM17.6347 7.50703L17.5002 6.7692C16.2349 6.99991 15.2103 7.92901 14.857 9.16579L15.5782 9.37178L16.2993 9.57778C16.4958 8.8898 17.0657 8.37315 17.7693 8.24487L17.6347 7.50703ZM17.6347 12.493L17.7693 11.7551C17.0657 11.6268 16.4958 11.1102 16.2993 10.4222L15.5782 10.6282L14.857 10.8342C15.2103 12.071 16.2349 13.0001 17.5002 13.2308L17.6347 12.493Z"
    fill="#F71AFC"
  />
</svg>
