<svg width="51" height="50" viewBox="0 0 51 50" fill="none" xmlns="http://www.w3.org/2000/svg">
<path d="M4.56641 4.16699H23.3164V22.917H4.56641V4.16699ZM8.73307 8.33366V18.7503H19.1497V8.33366H8.73307ZM27.4831 4.16699H46.2331V22.917H27.4831V4.16699ZM31.6497 8.33366V18.7503H42.0664V8.33366H31.6497ZM11.8581 11.4587H16.0331V15.6337H11.8581V11.4587ZM34.7747 11.4587H38.9497V15.6337H34.7747V11.4587ZM27.4747 27.0753H31.6497V31.2503H27.4747V27.0753ZM42.0581 27.0753H46.2331V31.2503H42.0581V27.0753ZM4.56641 27.0837H23.3164V45.8337H4.56641V27.0837ZM8.73307 31.2503V41.667H19.1497V31.2503H8.73307ZM33.7247 33.3253H37.8997V37.492H42.0664V41.6587H46.2331V45.8337H42.0581V41.667H37.8914V37.5003H33.7247V33.3253ZM11.8581 34.3753H16.0331V38.5503H11.8581V34.3753ZM27.4747 41.6587H31.6497V45.8337H27.4747V41.6587Z" fill="black"/>
</svg>
