<svg width="100" height="100" viewBox="0 0 100 100" fill="none" xmlns="http://www.w3.org/2000/svg">
<rect width="100" height="100" rx="50" fill="#FFC107" fill-opacity="0.08"/>
<path fill-rule="evenodd" clip-rule="evenodd" d="M27.5 50C27.5 40.6257 27.5 35.9385 29.8873 32.6527C30.6583 31.5915 31.5915 30.6583 32.6527 29.8873C35.9385 27.5 40.6257 27.5 50 27.5C59.3743 27.5 64.0615 27.5 67.3473 29.8873C68.4085 30.6583 69.3417 31.5915 70.1127 32.6527C72.5 35.9385 72.5 40.6257 72.5 50C72.5 59.3743 72.5 64.0615 70.1127 67.3473C69.3417 68.4085 68.4085 69.3417 67.3473 70.1127C64.0615 72.5 59.3743 72.5 50 72.5C40.6257 72.5 35.9385 72.5 32.6527 70.1127C31.5915 69.3417 30.6583 68.4085 29.8873 67.3473C27.5 64.0615 27.5 59.3743 27.5 50ZM50 35.625C51.0355 35.625 51.875 36.4645 51.875 37.5V52.5C51.875 53.5355 51.0355 54.375 50 54.375C48.9645 54.375 48.125 53.5355 48.125 52.5V37.5C48.125 36.4645 48.9645 35.625 50 35.625ZM50 62.5C51.3807 62.5 52.5 61.3807 52.5 60C52.5 58.6193 51.3807 57.5 50 57.5C48.6193 57.5 47.5 58.6193 47.5 60C47.5 61.3807 48.6193 62.5 50 62.5Z" fill="#FFC107"/>
</svg>
