<svg width="64" height="64" viewBox="0 0 64 64" fill="none" xmlns="http://www.w3.org/2000/svg">
<g clip-path="url(#clip0_17608_90941)">
<path d="M45.6203 32.4115C45.8273 32.3659 46.0214 32.2721 46.1841 32.138L57.7476 22.5885C58.5601 21.9141 58.8699 20.8359 58.5392 19.8464C58.2137 18.849 57.3231 18.1628 56.2737 18.1003L38.3601 16.9909L31.6767 1.53776C31.2744 0.602865 30.3551 0 29.3343 0C28.3135 0 27.3943 0.602865 26.992 1.53646L20.3086 16.9909L2.39632 18.1003C1.34556 18.1628 0.454965 18.849 0.132058 19.8385C-0.201266 20.8359 0.108621 21.9141 0.923702 22.5911L14.3595 33.6862L11.008 50.2943C10.8075 51.2904 11.2203 52.3073 12.051 52.8776C12.4781 53.1758 12.9832 53.3333 13.5093 53.3333C13.9832 53.3333 14.4454 53.2031 14.8413 52.9583L29.3343 44.1211L30.7913 45.0104C31.1455 45.224 31.5778 45.2656 31.9593 45.1185C32.3447 44.9727 32.6402 44.6576 32.7613 44.263C34.592 38.2904 39.5202 33.75 45.6203 32.4115Z" fill="#999999"/>
<path d="M49.3346 34.667C41.2474 34.667 34.668 41.2464 34.668 49.3337C34.668 57.4209 41.2474 64.0003 49.3346 64.0003C57.4219 64.0003 64.0013 57.4209 64.0013 49.3337C64.0013 41.2464 57.4219 34.667 49.3346 34.667ZM54.668 50.667H44.0013C43.2643 50.667 42.668 50.0706 42.668 49.3337C42.668 48.5967 43.2643 48.0003 44.0013 48.0003H54.668C55.4049 48.0003 56.0013 48.5967 56.0013 49.3337C56.0013 50.0706 55.4049 50.667 54.668 50.667Z" fill="#999999"/>
</g>
<defs>
<clipPath id="clip0_17608_90941">
<rect width="64" height="64" fill="white"/>
</clipPath>
</defs>
</svg>
