<svg width="19" height="19" viewBox="0 0 19 19" fill="none" xmlns="http://www.w3.org/2000/svg">
<path fill-rule="evenodd" clip-rule="evenodd" d="M6.40601 0.483021C8.44107 0.00565993 10.559 0.00565958 12.5941 0.483021C15.5329 1.17239 17.8277 3.46711 18.517 6.40601C18.9944 8.44107 18.9944 10.559 18.517 12.594C17.8277 15.5329 15.5329 17.8277 12.594 18.517C10.559 18.9944 8.44107 18.9944 6.40601 18.517C3.46711 17.8277 1.17239 15.533 0.483022 12.5941C0.0056594 10.559 0.00565946 8.44107 0.483022 6.406C1.17239 3.46711 3.46711 1.17239 6.40601 0.483021ZM10.125 7.00706C10.125 6.66188 9.84518 6.38206 9.5 6.38206C9.15482 6.38206 8.875 6.66188 8.875 7.00706V8.875H7.00706C6.66188 8.875 6.38206 9.15482 6.38206 9.5C6.38206 9.84518 6.66188 10.125 7.00706 10.125H8.875V11.9929C8.875 12.3381 9.15482 12.6179 9.5 12.6179C9.84518 12.6179 10.125 12.3381 10.125 11.9929V10.125H11.9929C12.3381 10.125 12.6179 9.84518 12.6179 9.5C12.6179 9.15482 12.3381 8.875 11.9929 8.875H10.125V7.00706Z" fill="#FC731A"/>
</svg>
