<svg width="12" height="14" viewBox="0 0 12 14" fill="none" xmlns="http://www.w3.org/2000/svg">
<path d="M6.66732 3.66667C7.02094 3.66667 7.36008 3.80714 7.61013 4.05719C7.86018 4.30724 8.00065 4.64638 8.00065 5V13L4.66732 11L1.33398 13V5C1.33398 4.64638 1.47446 4.30724 1.72451 4.05719C1.97456 3.80714 2.3137 3.66667 2.66732 3.66667H6.66732Z" fill="white"/>
<path d="M4.17725 1.66667C4.29444 1.46369 4.46306 1.29518 4.66613 1.17814C4.8692 1.0611 5.09953 0.999656 5.33391 1H9.33391C9.68753 1 10.0267 1.14048 10.2767 1.39053C10.5268 1.64057 10.6672 1.97971 10.6672 2.33333V10.3333L10.0006 9.93333" fill="white"/>
<path d="M4.17725 1.66667C4.29444 1.46369 4.46306 1.29518 4.66613 1.17814C4.8692 1.0611 5.09953 0.999656 5.33391 1H9.33391C9.68753 1 10.0267 1.14048 10.2767 1.39053C10.5268 1.64057 10.6672 1.97971 10.6672 2.33333V10.3333L10.0006 9.93333M6.66732 3.66667C7.02094 3.66667 7.36008 3.80714 7.61013 4.05719C7.86018 4.30724 8.00065 4.64638 8.00065 5V13L4.66732 11L1.33398 13V5C1.33398 4.64638 1.47446 4.30724 1.72451 4.05719C1.97456 3.80714 2.3137 3.66667 2.66732 3.66667H6.66732Z" stroke="#1C1B1B" stroke-linecap="round" stroke-linejoin="round"/>
</svg>
