<svg width="20" height="20" viewBox="0 0 20 20" fill="none" xmlns="http://www.w3.org/2000/svg">
<path d="M1.08721 11.7811L1.81739 11.6098L1.08721 11.7811ZM1.08721 6.324L1.81739 6.49528L1.08721 6.324ZM16.5608 6.324L17.291 6.15273L16.5608 6.324ZM16.5608 11.781L17.291 11.9523L16.5608 11.781ZM11.5525 16.7893L11.3813 16.0591L11.5525 16.7893ZM6.09549 16.7893L5.92421 17.5195L6.09549 16.7893ZM6.09549 1.31573L5.92421 0.585547L6.09549 1.31573ZM11.5525 1.31573L11.7238 0.585546L11.5525 1.31573ZM18.2412 19.5303C18.534 19.8232 19.0089 19.8232 19.3018 19.5303C19.5947 19.2374 19.5947 18.7626 19.3018 18.4697L18.2412 19.5303ZM1.81739 11.6098C1.42285 9.92777 1.42285 8.17728 1.81739 6.49528L0.357032 6.15272C-0.0903648 8.06004 -0.0903649 10.045 0.357032 11.9523L1.81739 11.6098ZM15.8306 6.49528C16.2252 8.17728 16.2252 9.92777 15.8306 11.6098L17.291 11.9523C17.7384 10.045 17.7384 8.06004 17.291 6.15273L15.8306 6.49528ZM11.3813 16.0591C9.69925 16.4537 7.94877 16.4537 6.26676 16.0591L5.92421 17.5195C7.83152 17.9669 9.81649 17.9669 11.7238 17.5195L11.3813 16.0591ZM6.26676 2.04591C7.94877 1.65136 9.69925 1.65136 11.3813 2.04591L11.7238 0.585546C9.81649 0.138151 7.83152 0.138151 5.92421 0.585547L6.26676 2.04591ZM6.26676 16.0591C4.05905 15.5413 2.33525 13.8175 1.81739 11.6098L0.357032 11.9523C1.00499 14.7147 3.16186 16.8715 5.92421 17.5195L6.26676 16.0591ZM11.7238 17.5195C14.4862 16.8715 16.643 14.7147 17.291 11.9523L15.8306 11.6098C15.3128 13.8175 13.589 15.5413 11.3813 16.0591L11.7238 17.5195ZM11.3813 2.04591C13.589 2.56377 15.3128 4.28757 15.8306 6.49528L17.291 6.15273C16.643 3.39037 14.4862 1.23351 11.7238 0.585546L11.3813 2.04591ZM5.92421 0.585547C3.16186 1.23351 1.00499 3.39037 0.357032 6.15272L1.81739 6.49528C2.33525 4.28756 4.05905 2.56377 6.26676 2.04591L5.92421 0.585547ZM14.5763 15.8655L18.2412 19.5303L19.3018 18.4697L15.637 14.8048L14.5763 15.8655Z" fill="#999999"/>
</svg>
