<svg width="24" height="24" viewBox="0 0 24 24" fill="none" xmlns="http://www.w3.org/2000/svg">
<path fill-rule="evenodd" clip-rule="evenodd" d="M16.5 2.25C16.0245 2.24984 15.5547 2.35402 15.1239 2.55519C14.693 2.75636 14.3116 3.04962 14.0064 3.41428C13.7013 3.77894 13.4798 4.20611 13.3578 4.66567C13.2357 5.12523 13.216 5.60598 13.3 6.074L8.56995 9.386C8.5463 9.40236 8.52359 9.42006 8.50195 9.439C8.02209 9.06388 7.44647 8.83116 6.84073 8.76737C6.235 8.70358 5.62353 8.8113 5.07605 9.07823C4.52857 9.34516 4.06712 9.76057 3.74432 10.2771C3.42153 10.7936 3.25037 11.3904 3.25037 11.9995C3.25037 12.6086 3.42153 13.2054 3.74432 13.7219C4.06712 14.2384 4.52857 14.6538 5.07605 14.9208C5.62353 15.1877 6.235 15.2954 6.84073 15.2316C7.44647 15.1678 8.02209 14.9351 8.50195 14.56C8.52356 14.5793 8.54627 14.5973 8.56995 14.614L13.3 17.926C13.1595 18.7088 13.311 19.5158 13.7256 20.1944C14.1403 20.873 14.7893 21.376 15.5499 21.6082C16.3105 21.8404 17.1299 21.7857 17.8528 21.4544C18.5758 21.1231 19.1522 20.5382 19.4729 19.8105C19.7936 19.0828 19.8364 18.2628 19.5931 17.5057C19.3498 16.7485 18.8374 16.1069 18.1528 15.7022C17.4682 15.2975 16.659 15.1578 15.8784 15.3096C15.0978 15.4615 14.3999 15.8942 13.917 16.526L9.43795 13.391C9.63795 12.969 9.74995 12.498 9.74995 12C9.74995 11.502 9.63795 11.03 9.43795 10.609L13.918 7.473C14.2535 7.91227 14.6956 8.25868 15.2024 8.47948C15.7092 8.70028 16.2639 8.78817 16.8141 8.73484C17.3643 8.68151 17.8918 8.48872 18.3468 8.1747C18.8017 7.86068 19.169 7.43581 19.414 6.94026C19.659 6.44472 19.7735 5.89488 19.7467 5.34274C19.72 4.7906 19.5528 4.25441 19.2611 3.78487C18.9694 3.31532 18.5627 2.92795 18.0796 2.65937C17.5964 2.3908 17.0527 2.2499 16.5 2.25ZM14.75 5.5C14.75 5.03587 14.9343 4.59075 15.2625 4.26256C15.5907 3.93437 16.0358 3.75 16.5 3.75C16.9641 3.75 17.4092 3.93437 17.7374 4.26256C18.0656 4.59075 18.25 5.03587 18.25 5.5C18.25 5.96413 18.0656 6.40925 17.7374 6.73744C17.4092 7.06563 16.9641 7.25 16.5 7.25C16.0358 7.25 15.5907 7.06563 15.2625 6.73744C14.9343 6.40925 14.75 5.96413 14.75 5.5ZM6.49995 10.25C6.03582 10.25 5.5907 10.4344 5.26251 10.7626C4.93432 11.0908 4.74995 11.5359 4.74995 12C4.74995 12.4641 4.93432 12.9092 5.26251 13.2374C5.5907 13.5656 6.03582 13.75 6.49995 13.75C6.96408 13.75 7.4092 13.5656 7.73739 13.2374C8.06558 12.9092 8.24995 12.4641 8.24995 12C8.24995 11.5359 8.06558 11.0908 7.73739 10.7626C7.4092 10.4344 6.96408 10.25 6.49995 10.25ZM16.5 16.75C16.0358 16.75 15.5907 16.9344 15.2625 17.2626C14.9343 17.5908 14.75 18.0359 14.75 18.5C14.75 18.9641 14.9343 19.4092 15.2625 19.7374C15.5907 20.0656 16.0358 20.25 16.5 20.25C16.9641 20.25 17.4092 20.0656 17.7374 19.7374C18.0656 19.4092 18.25 18.9641 18.25 18.5C18.25 18.0359 18.0656 17.5908 17.7374 17.2626C17.4092 16.9344 16.9641 16.75 16.5 16.75Z" fill="black"/>
</svg>