<svg width="18" height="20" viewBox="0 0 18 20" fill="none" xmlns="http://www.w3.org/2000/svg">
<path d="M9.00022 14C11.7572 14 14.0002 11.757 14.0002 9V6.41406L17.7072 2.70703C18.0982 2.31603 18.0982 1.68397 17.7072 1.29297C17.3162 0.901969 16.6842 0.901969 16.2932 1.29297L12.2942 5.29199L12.2922 5.29395L0.29325 17.293C-0.09775 17.684 -0.09775 18.316 0.29325 18.707C0.48825 18.902 0.74422 19 1.00022 19C1.25622 19 1.51219 18.902 1.70719 18.707L4.68723 15.7271C5.68423 16.3691 6.81722 16.7799 8.00022 16.9299V18H5.00022C4.44822 18 4.00022 18.447 4.00022 19C4.00022 19.553 4.44822 20 5.00022 20H13.0002C13.5522 20 14.0002 19.553 14.0002 19C14.0002 18.447 13.5522 18 13.0002 18H10.0002V16.9309C13.9402 16.4359 17.0002 13.072 17.0002 9C17.0002 8.447 16.5522 8 16.0002 8C15.4482 8 15.0002 8.447 15.0002 9C15.0002 12.309 12.3092 15 9.00022 15C7.99522 15 7.01422 14.7401 6.14622 14.2681L6.89121 13.5229C7.55221 13.8329 8.26722 14 9.00022 14ZM12.0002 9C12.0002 10.654 10.6542 12 9.00022 12C8.82022 12 8.64324 11.979 8.46824 11.946L12.0002 8.41406V9ZM4.12119 10.104C4.04019 9.71 4.00022 9.35 4.00022 9V5C4.00022 3.677 4.51823 2.42202 5.45823 1.46802C6.42223 0.518018 7.67622 0 9.00022 0C10.6372 0 12.1702 0.803902 13.1022 2.1499C13.4162 2.6039 13.3032 3.22699 12.8492 3.54199C12.3952 3.85499 11.7722 3.74206 11.4582 3.28906C10.8992 2.48106 9.98122 2 9.00022 2C8.20522 2 7.44923 2.31308 6.87223 2.88208C6.31323 3.44908 6.00022 4.205 6.00022 5V9C6.00022 9.212 6.0262 9.43902 6.0792 9.69702C6.1912 10.238 5.8442 10.7669 5.3032 10.8799C5.2352 10.8939 5.16622 10.9009 5.09922 10.9009C4.63522 10.8999 4.21919 10.575 4.12119 10.104ZM1.89323 12.6819C1.30923 11.5609 1.00022 10.287 1.00022 9C1.00022 8.447 1.44822 8 2.00022 8C2.55222 8 3.00022 8.447 3.00022 9C3.00022 9.967 3.23021 10.9201 3.66721 11.7581C3.92221 12.2481 3.73222 12.8519 3.24222 13.1069C3.09522 13.1839 2.93623 13.22 2.78123 13.22C2.42023 13.22 2.07123 13.0239 1.89323 12.6819Z" fill="#111D4A"/>
</svg>
