<svg width="17" height="16" viewBox="0 0 17 16" fill="none" xmlns="http://www.w3.org/2000/svg">
<path d="M14.1913 6.66504L9.83533 2.30965C9.20599 1.68032 8.36866 1.33301 7.47866 1.33301H4.50065C3.02998 1.33301 1.83398 2.52901 1.83398 3.99967V6.97697C1.83398 7.86697 2.18064 8.70431 2.80998 9.33431L7.16598 13.6897C7.79531 14.319 8.63264 14.6663 9.52264 14.6663C10.4133 14.6663 11.25 14.319 11.88 13.6897L14.1907 11.379C15.4907 10.0797 15.4907 7.96437 14.1913 6.66504ZM13.2487 10.4364L10.938 12.747C10.1827 13.5017 8.86598 13.503 8.10931 12.747L3.75332 8.39168C3.37532 8.01368 3.16732 7.51097 3.16732 6.97697V3.99967C3.16732 3.26434 3.76532 2.66634 4.50065 2.66634H7.47799C8.00465 2.66634 8.51932 2.87969 8.89199 3.25236L13.248 7.60767C14.028 8.38767 14.028 9.65636 13.2487 10.4364ZM6.50065 4.99967C6.50065 5.55167 6.05265 5.99967 5.50065 5.99967C4.94865 5.99967 4.50065 5.55167 4.50065 4.99967C4.50065 4.44767 4.94865 3.99967 5.50065 3.99967C6.05265 3.99967 6.50065 4.44767 6.50065 4.99967Z" fill="#41416E"/>
</svg>
