<svg width="32" height="32" viewBox="0 0 32 32" fill="none" xmlns="http://www.w3.org/2000/svg">
<path fill-rule="evenodd" clip-rule="evenodd" d="M19.9603 4.45826C17.3555 3.84724 14.6445 3.84725 12.0397 4.45827C8.27789 5.34066 5.34066 8.27788 4.45827 12.0397C3.84724 14.6445 3.84724 17.3555 4.45827 19.9603C5.34066 23.7221 8.27789 26.6593 12.0397 27.5417C14.6445 28.1528 17.3555 28.1528 19.9603 27.5417C23.7221 26.6593 26.6593 23.7221 27.5417 19.9603C28.1528 17.3555 28.1528 14.6445 27.5417 12.0397C26.6593 8.27789 23.7221 5.34066 19.9603 4.45826ZM11.405 12.1708C11.405 11.7479 11.7479 11.405 12.1709 11.405H17.2764C17.6993 11.405 18.0422 11.7479 18.0422 12.1708C18.0422 12.5938 17.6993 12.9367 17.2764 12.9367H12.1709C11.7479 12.9367 11.405 12.5938 11.405 12.1708ZM11.405 16C11.405 15.577 11.7479 15.2341 12.1709 15.2341H19.8291C20.2521 15.2341 20.595 15.577 20.595 16C20.595 16.4229 20.2521 16.7658 19.8291 16.7658H12.1709C11.7479 16.7658 11.405 16.4229 11.405 16ZM11.405 19.8291C11.405 19.4062 11.7479 19.0633 12.1709 19.0633H16C16.423 19.0633 16.7658 19.4062 16.7658 19.8291C16.7658 20.2521 16.423 20.5949 16 20.5949H12.1709C11.7479 20.5949 11.405 20.2521 11.405 19.8291Z" fill="#1A8150"/>
</svg>
