<svg width="20" height="18" viewBox="0 0 20 18" fill="none" xmlns="http://www.w3.org/2000/svg">
<path d="M1.72101 14.2803C1.40401 14.2803 1.09201 14.1304 0.89801 13.8494C0.31101 13.0004 0 12.0153 0 10.9993V6.9993C0 4.2423 2.243 1.9993 5 1.9993H9C10.016 1.9993 11.001 2.31028 11.849 2.89628C12.303 3.21028 12.416 3.83437 12.102 4.28837C11.788 4.74337 11.165 4.8553 10.71 4.5413C10.198 4.1873 9.607 3.9993 9 3.9993H5C3.346 3.9993 2 5.3453 2 6.9993V10.9993C2 11.6053 2.18799 12.1972 2.54199 12.7102C2.85599 13.1642 2.743 13.7873 2.289 14.1023C2.116 14.2233 1.91701 14.2803 1.72101 14.2803ZM20 6.23832V11.7613C20 12.5733 19.556 13.3173 18.84 13.6993C18.514 13.8743 18.156 13.9612 17.8 13.9612C17.374 13.9612 16.95 13.8383 16.582 13.5933L13.917 11.8223C13.522 14.1873 11.475 15.9993 9 15.9993H5C4.82 15.9993 4.63602 15.9883 4.44702 15.9663L2.70697 17.7063C2.51197 17.9013 2.256 17.9993 2 17.9993C1.744 17.9993 1.48803 17.9013 1.29303 17.7063C0.90203 17.3153 0.90203 16.6833 1.29303 16.2923L17.293 0.292273C17.684 -0.0987266 18.316 -0.0987266 18.707 0.292273C19.098 0.683273 19.098 1.31534 18.707 1.70634L14.87 5.54325L16.582 4.40531C17.258 3.95531 18.123 3.91435 18.84 4.29935C19.556 4.68335 20 5.42632 20 6.23832ZM12 11.0003V8.41434L6.414 14.0003H9C10.654 14.0003 12 12.6543 12 11.0003ZM18 6.23832C18 6.15932 17.965 6.09929 17.895 6.06229C17.824 6.02329 17.754 6.0283 17.689 6.0723L14 8.52421V9.47636L17.689 11.9283C17.754 11.9723 17.824 11.9773 17.895 11.9383C17.965 11.9013 18 11.8412 18 11.7622V6.23832Z" fill="#111D4A"/>
</svg>
