<svg width="28" height="28" viewBox="0 0 28 28" fill="none" xmlns="http://www.w3.org/2000/svg">
<path d="M12.1134 12.1159C11.6134 12.6161 11.3326 13.2944 11.3327 14.0017C11.3328 14.709 11.6139 15.3872 12.1141 15.8872C12.6143 16.3872 13.2926 16.6681 13.9999 16.668C14.7072 16.6678 15.3854 16.3868 15.8854 15.8866" fill="white"/>
<path d="M20.2413 20.2307C18.371 21.4009 16.2062 22.0146 14 22C9.2 22 5.2 19.3334 2 14C3.696 11.1734 5.616 9.09604 7.76 7.76804M11.5733 6.24004C12.3721 6.07835 13.1851 5.99794 14 6.00004C18.8 6.00004 22.8 8.66671 26 14C25.112 15.48 24.1613 16.756 23.1493 17.8267" fill="white"/>
<path d="M2 2L26 26Z" fill="white"/>
<path d="M12.1134 12.1159C11.6134 12.6161 11.3326 13.2944 11.3327 14.0017C11.3328 14.709 11.6139 15.3872 12.1141 15.8872C12.6143 16.3872 13.2926 16.6681 13.9999 16.668C14.7072 16.6678 15.3854 16.3868 15.8854 15.8866M20.2413 20.2307C18.371 21.4009 16.2062 22.0146 14 22C9.2 22 5.2 19.3334 2 14C3.696 11.1734 5.616 9.09604 7.76 7.76804M11.5733 6.24004C12.3721 6.07835 13.1851 5.99794 14 6.00004C18.8 6.00004 22.8 8.66671 26 14C25.112 15.48 24.1613 16.756 23.1493 17.8267M2 2L26 26" stroke="#494949" stroke-width="2.66667" stroke-linecap="round" stroke-linejoin="round"/>
</svg>
