<svg width="51" height="48" viewBox="0 0 51 48" fill="none" xmlns="http://www.w3.org/2000/svg">
<path fill-rule="evenodd" clip-rule="evenodd" d="M33.4156 0.880802C28.0919 -0.2936 22.5747 -0.293601 17.2511 0.880801L16.1375 1.12647C9.98294 2.48418 4.90654 6.6171 2.29938 12.1748C1.90767 13.0098 2.54873 13.9243 3.47105 13.9243H47.1956C48.1179 13.9243 48.759 13.0098 48.3673 12.1748C45.7601 6.6171 40.6837 2.48417 34.5292 1.12647L33.4156 0.880802ZM1.00529 32.1835C-0.0681485 27.8798 -0.281931 23.4189 0.363939 19.0526C0.458237 18.4151 1.01332 17.9546 1.65774 17.9546H49.0089C49.6534 17.9546 50.2084 18.4151 50.3027 19.0526C50.9486 23.4189 50.7348 27.8797 49.6614 32.1835C47.8258 39.543 41.9642 45.2334 34.5292 46.8735L33.4156 47.1192C28.0919 48.2936 22.5747 48.2936 17.2511 47.1192L16.1375 46.8735C8.70247 45.2334 2.8409 39.5431 1.00529 32.1835ZM11.8423 21.9848C10.7246 21.9848 9.81861 22.887 9.81861 24C9.81861 25.1129 10.7246 26.0151 11.8423 26.0151H22.6352C23.7528 26.0151 24.6588 25.1129 24.6588 24C24.6588 22.887 23.7528 21.9848 22.6352 21.9848H11.8423Z" fill="#F2F2F2"/>
</svg>
