<svg width="32" height="32" viewBox="0 0 32 32" fill="none" xmlns="http://www.w3.org/2000/svg">
<path fill-rule="evenodd" clip-rule="evenodd" d="M4 16C4 11.0004 4 8.50054 5.27322 6.7481C5.68442 6.18213 6.18213 5.68442 6.7481 5.27322C8.50054 4 11.0004 4 16 4C20.9996 4 23.4995 4 25.2519 5.27322C25.8179 5.68442 26.3156 6.18213 26.7268 6.7481C28 8.50054 28 11.0004 28 16C28 20.9996 28 23.4995 26.7268 25.2519C26.3156 25.8179 25.8179 26.3156 25.2519 26.7268C23.4995 28 20.9996 28 16 28C11.0004 28 8.50054 28 6.7481 26.7268C6.18213 26.3156 5.68442 25.8179 5.27322 25.2519C4 23.4995 4 20.9996 4 16ZM16 8.33333C16.5523 8.33333 17 8.78105 17 9.33333V17.3333C17 17.8856 16.5523 18.3333 16 18.3333C15.4477 18.3333 15 17.8856 15 17.3333V9.33333C15 8.78105 15.4477 8.33333 16 8.33333ZM16 22.6667C16.7364 22.6667 17.3333 22.0697 17.3333 21.3333C17.3333 20.597 16.7364 20 16 20C15.2636 20 14.6667 20.597 14.6667 21.3333C14.6667 22.0697 15.2636 22.6667 16 22.6667Z" fill="#C98A05"/>
</svg>
