<svg width="25" height="24" viewBox="0 0 25 24" fill="none" xmlns="http://www.w3.org/2000/svg">
<path d="M3.44414 8.28418C3.81747 6.62497 5.10448 5.31882 6.76653 4.91238C9.03218 4.35834 11.4252 4.36467 13.6909 4.91871C15.332 5.32005 16.6361 6.59343 17.049 8.22135L17.074 8.31991C17.6868 10.7356 17.6868 13.2644 17.074 15.6801L17.049 15.7787C16.6361 17.4066 15.332 18.68 13.6909 19.0813C11.4252 19.6353 9.03218 19.6417 6.76653 19.0876C5.10449 18.6812 3.81747 17.375 3.44414 15.7158L3.3825 15.4419C2.8725 13.1752 2.8725 10.8248 3.3825 8.55815L3.44414 8.28418Z" stroke="#999999" stroke-width="1.5"/>
<path d="M17.1633 15.3084L17.3603 15.3736C17.4115 15.3905 17.4614 15.4111 17.5097 15.4351L19.1936 16.2713C20.4829 16.9117 22 15.9804 22 14.5485L22 9.81013C22 8.29729 20.3246 7.37498 19.033 8.17679L17.5474 9.09908C17.4742 9.14452 17.4064 9.19808 17.3453 9.25871L17.2904 9.31325C17.6526 11.2977 17.6102 13.3366 17.1633 15.3084Z" stroke="#999999" stroke-width="1.5"/>
</svg>
