<svg width="38" height="38" viewBox="0 0 38 38" fill="none" xmlns="http://www.w3.org/2000/svg">
<path d="M12.8117 0.966041C16.8819 0.0113195 21.1186 0.0113195 25.1887 0.966041C31.0663 2.34487 35.6557 6.93503 37.0344 12.8127C37.989 16.8827 37.9891 21.1187 37.0344 25.1887C35.6556 31.0662 31.0662 35.6556 25.1887 37.0344C21.1187 37.9891 16.8827 37.989 12.8127 37.0344C6.93503 35.6557 2.34487 31.0664 0.966043 25.1887C0.0113188 21.1186 0.0113189 16.8819 0.966043 12.8117C2.34487 6.93428 6.93429 2.34487 12.8117 0.966041ZM18.3547 12.8635C17.3603 12.2272 16.2272 12.3095 15.3616 12.8635C14.502 13.4137 13.9124 14.4195 13.9123 15.6213V22.3782L13.9192 22.6018C13.9873 23.7043 14.5558 24.6202 15.3616 25.136C16.2272 25.69 17.3602 25.7723 18.3547 25.136L23.634 21.758L23.8117 21.635C24.6724 20.9944 25.0831 19.9804 25.0832 19.0002C25.0832 18.02 24.6723 17.0061 23.8117 16.3655L23.634 16.2424L18.3547 12.8635ZM16.008 13.8742C16.5109 13.5524 17.1386 13.5097 17.7082 13.8742L22.9875 17.2532L23.093 17.3264C23.6073 17.7094 23.884 18.3381 23.884 19.0002C23.8839 19.6621 23.6071 20.2901 23.093 20.6731L22.9875 20.7473L17.7082 24.1252C17.1386 24.4897 16.5109 24.447 16.008 24.1252C15.5312 23.8199 15.161 23.2548 15.1164 22.5266L15.1116 22.3782V15.6213C15.1116 14.8215 15.4993 14.2 16.008 13.8742Z" fill="white"/>
</svg>
