<svg width="48" height="48" viewBox="0 0 48 48" fill="none" xmlns="http://www.w3.org/2000/svg">
<rect width="48" height="48" rx="24" fill="black" fill-opacity="0.2"/>
<path fill-rule="evenodd" clip-rule="evenodd" d="M20.155 17.653C20.7172 16.1071 22.2257 15 24 15C25.7743 15 27.2828 16.1071 27.845 17.653C30.1743 18.2316 32.0109 20.0016 32.628 22.2884C33.124 24.1269 33.124 26.0599 32.628 27.8984C31.9864 30.2762 30.0262 32.0952 27.5648 32.5972L27.1455 32.6827C25.0708 33.1058 22.9292 33.1058 20.8545 32.6827L20.4352 32.5972C17.9738 32.0952 16.0136 30.2762 15.3721 27.8984C14.876 26.0599 14.876 24.1269 15.3721 22.2884C15.9891 20.0016 17.8257 18.2316 20.155 17.653ZM24 22.1828C22.3564 22.1828 21.0239 23.4859 21.0239 25.0934C21.0239 26.7009 22.3564 28.0041 24 28.0041C25.6436 28.0041 26.976 26.7009 26.976 25.0934C26.976 23.4859 25.6436 22.1828 24 22.1828ZM22.176 25.0934C22.176 24.1082 22.9926 23.3095 24 23.3095C25.0074 23.3095 25.824 24.1082 25.824 25.0934C25.824 26.0787 25.0074 26.8774 24 26.8774C22.9926 26.8774 22.176 26.0787 22.176 25.0934Z" fill="white"/>
</svg>
