<svg width="18" height="17" viewBox="0 0 18 17" fill="none" xmlns="http://www.w3.org/2000/svg">
<path d="M1.08835 12.2541C0.621472 11.5979 0.375 10.8295 0.375 10.0302V6.58109C0.375 4.44179 2.12708 2.70085 4.28008 2.70085H8.61905C9.19093 2.70085 9.73593 2.82323 10.2384 3.06294C10.3651 3.12244 10.4553 3.24054 10.4779 3.37851C10.5013 3.51647 10.457 3.65722 10.3572 3.75638L1.74873 12.3101C1.66715 12.3911 1.55607 12.436 1.44152 12.436C1.42937 12.436 1.41723 12.4352 1.40508 12.4343C1.27838 12.4231 1.16211 12.3576 1.08835 12.2541ZM16.4648 4.72728C16.0196 4.49188 15.4859 4.51851 15.0694 4.79444L14.0801 5.44978C13.9899 5.51014 13.9351 5.6119 13.9351 5.71882V10.8925C13.9351 11.0003 13.989 11.1012 14.0801 11.1615L15.0685 11.816C15.2959 11.9678 15.5588 12.0444 15.8235 12.0444C16.043 12.0444 16.2634 11.9909 16.4656 11.884C16.9126 11.6477 17.1894 11.1883 17.1894 10.6847V5.92491C17.1885 5.42221 16.9108 4.96355 16.4648 4.72728ZM16.1749 2.0171C16.5142 1.67995 16.5142 1.13493 16.1749 0.797784C15.8356 0.460634 15.2872 0.460634 14.9479 0.797784L1.06319 14.5942C0.723879 14.9313 0.723879 15.4764 1.06319 15.8135C1.23241 15.9816 1.45454 16.0661 1.67669 16.0661C1.89885 16.0661 2.12098 15.9816 2.2902 15.8135L4.21323 13.9026C4.23666 13.9026 4.25665 13.9104 4.28008 13.9104H8.61905C10.772 13.9104 12.5241 12.1695 12.5241 10.0302V6.58109C12.5241 6.29223 12.4911 6.01108 12.4295 5.73861L16.1749 2.0171Z" fill="white"/>
</svg>
