  <svg
    width="25"
    height="25"
    viewBox="0 0 25 25"
    fill="none"
    xmlns="http://www.w3.org/2000/svg"
  >
    <path
      d="M3.38539 9.34875C4.05805 6.63984 6.20602 4.54534 8.93056 3.94162L9.38443 3.84105C11.4366 3.38632 13.5634 3.38632 15.6156 3.84105L16.0694 3.94162C18.794 4.54534 20.942 6.63984 21.6146 9.34876C22.1285 11.4182 22.1285 13.5819 21.6146 15.6512C20.942 18.3602 18.794 20.4547 16.0694 21.0584L15.6156 21.159C13.5634 21.6137 11.4366 21.6137 9.38443 21.159L8.93055 21.0584C6.20601 20.4547 4.05805 18.3602 3.38539 15.6513C2.87154 13.5819 2.87154 11.4181 3.38539 9.34875Z"
      fill="#414A6E"
    />
    <path
      d="M4.80225 7.0004L10.5825 11.13C11.7295 11.9496 13.2705 11.9496 14.4175 11.13L20.1977 7.0004M3.38539 15.6513C2.87154 13.5819 2.87154 11.4181 3.38539 9.34875C4.05805 6.63984 6.20602 4.54534 8.93056 3.94162L9.38443 3.84105C11.4366 3.38632 13.5634 3.38632 15.6156 3.84105L16.0694 3.94162C18.794 4.54534 20.942 6.63984 21.6146 9.34876C22.1285 11.4182 22.1285 13.5819 21.6146 15.6512C20.942 18.3602 18.794 20.4547 16.0694 21.0584L15.6156 21.159C13.5634 21.6137 11.4366 21.6137 9.38443 21.159L8.93055 21.0584C6.20601 20.4547 4.05805 18.3602 3.38539 15.6513Z"
      stroke="#111D4A"
      strokeWidth="1.5"
      strokeLinecap="round"
    />
  </svg>