<svg width="19" height="18" viewBox="0 0 19 18" fill="none" xmlns="http://www.w3.org/2000/svg">
<path fill-rule="evenodd" clip-rule="evenodd" d="M14.0231 12.6998C14.6223 12.6109 15.3942 12.5936 16.4539 12.5905C15.7002 14.4179 14.1057 15.7978 12.1423 16.2583L12.1378 16.2594C12.1476 15.4971 12.1749 14.9092 12.2496 14.4344C12.3472 13.8132 12.5141 13.4699 12.7634 13.2207C13.0185 12.9656 13.3724 12.7964 14.0231 12.6998ZM12.4703 0.343699C10.5166 -0.114566 8.4834 -0.114566 6.52975 0.343699C3.70842 1.00549 1.5055 3.20841 0.8437 6.02974C0.385433 7.9834 0.385433 10.0166 0.8437 11.9703C1.5055 14.7916 3.70842 16.9945 6.52975 17.6563C8.17069 18.0412 9.86774 18.1028 11.5266 17.8411C11.8428 17.7913 12.1575 17.7297 12.4703 17.6563C15.2916 16.9945 17.4945 14.7916 18.1563 11.9703C18.6146 10.0166 18.6146 7.9834 18.1563 6.02975C17.4945 3.20842 15.2916 1.00549 12.4703 0.343699ZM6.05374 6.12812C6.05374 5.8109 6.3109 5.55374 6.62812 5.55374H9.49997C9.81719 5.55374 10.0743 5.8109 10.0743 6.12812C10.0743 6.44533 9.81719 6.70249 9.49997 6.70249H6.62812C6.3109 6.70249 6.05374 6.44533 6.05374 6.12812ZM6.05374 8.99997C6.05374 8.68276 6.3109 8.4256 6.62812 8.4256H11.4145C11.7318 8.4256 11.9889 8.68276 11.9889 8.99997C11.9889 9.31719 11.7318 9.57435 11.4145 9.57435H6.62812C6.3109 9.57435 6.05374 9.31719 6.05374 8.99997Z" fill="#111D4A"/>
</svg>
