  <svg
    width="25"
    height="25"
    viewBox="0 0 25 25"
    fill="none"
    xmlns="http://www.w3.org/2000/svg"
  >
    <path
      d="M4.36241 11.2032C4.93895 9.02447 6.6993 7.32847 8.89677 6.87155C11.2737 6.37731 13.7263 6.37731 16.1032 6.87155C18.3007 7.32847 20.0611 9.02447 20.6376 11.2032C21.1165 13.013 21.1229 14.9414 20.644 16.7511C20.0585 18.964 18.279 20.6547 16.0471 21.1188L15.8918 21.1511C13.6543 21.6163 11.3457 21.6163 9.10824 21.1511L8.95287 21.1188C6.72102 20.6547 4.94153 18.964 4.35597 16.7511C3.87707 14.9414 3.88351 13.013 4.36241 11.2032Z"
      fill="#414A6E"
    />
    <path
      d="M4.01146 13.4952V7.75212C4.01146 5.8599 5.29687 4.19319 7.11272 3.69064C7.56583 3.56524 8.03975 3.5 8.50974 3.5H9.3677C11.0489 3.5 13.0221 4.81117 13.7463 6.54481C12.54 6.54503 10.0842 6.62466 8.89677 6.87155C6.6993 7.32847 4.93895 9.02447 4.36241 11.2032C4.16414 11.9525 4.04685 12.7221 4.01146 13.4952Z"
      fill="#414A6E"
    />
    <path
      d="M4.01146 14.4964V14.5138L4.0124 14.5164C4.01208 14.5097 4.01177 14.5031 4.01146 14.4964Z"
      fill="#414A6E"
    />
    <path
      d="M4.36241 11.2032C3.88351 13.013 3.87707 14.9414 4.35597 16.7511C4.94153 18.964 6.72102 20.6547 8.95287 21.1188L9.10824 21.1511C11.3457 21.6163 13.6543 21.6163 15.8918 21.1511L16.0471 21.1188C18.279 20.6547 20.0585 18.964 20.644 16.7511C21.1229 14.9414 21.1165 13.013 20.6376 11.2032C20.0611 9.02447 18.3007 7.32847 16.1032 6.87155C13.7263 6.37731 11.2737 6.37731 8.89677 6.87155M4.36241 11.2032C4.93895 9.02447 6.6993 7.32847 8.89677 6.87155M4.36241 11.2032C4.16414 11.9525 4.04685 12.7221 4.01146 13.4952V7.75212C4.01146 5.8599 5.29687 4.19319 7.11272 3.69064C7.56583 3.56524 8.03975 3.5 8.50974 3.5H9.3677C11.0489 3.5 13.0221 4.81117 13.7463 6.54481C12.54 6.54503 10.0842 6.62466 8.89677 6.87155M15.1103 9.26913L15.1529 9.27627C16.9358 9.57479 18.2426 11.1245 18.2426 12.9404M4.01146 14.4964V14.5138L4.0124 14.5164C4.01208 14.5097 4.01177 14.5031 4.01146 14.4964Z"
      stroke="#111D4A"
      strokeWidth="1.5"
      strokeLinecap="round"
    />
  </svg>