 <svg
    width="25"
    height="25"
    viewBox="0 0 25 25"
    fill="none"
    xmlns="http://www.w3.org/2000/svg"
  >
    <path
      d="M5.5 19.6115C5.5 17.1984 7.19732 15.143 9.50404 14.7627L9.71182 14.7284C11.5589 14.4239 13.4411 14.4239 15.2882 14.7284L15.496 14.7627C17.8027 15.143 19.5 17.1984 19.5 19.6115C19.5 20.6545 18.6815 21.5 17.6719 21.5H7.32813C6.31848 21.5 5.5 20.6545 5.5 19.6115Z"
      fill="#414A6E"
    />
    <path
      d="M16.5834 7.4375C16.5834 9.61212 14.7552 11.375 12.5 11.375C10.2449 11.375 8.41669 9.61212 8.41669 7.4375C8.41669 5.26288 10.2449 3.5 12.5 3.5C14.7552 3.5 16.5834 5.26288 16.5834 7.4375Z"
      fill="#414A6E"
    />
    <path
      d="M5.5 19.6115C5.5 17.1984 7.19732 15.143 9.50404 14.7627L9.71182 14.7284C11.5589 14.4239 13.4411 14.4239 15.2882 14.7284L15.496 14.7627C17.8027 15.143 19.5 17.1984 19.5 19.6115C19.5 20.6545 18.6815 21.5 17.6719 21.5H7.32813C6.31848 21.5 5.5 20.6545 5.5 19.6115Z"
      stroke="#111D4A"
      strokeWidth="1.5"
    />
    <path
      d="M16.5834 7.4375C16.5834 9.61212 14.7552 11.375 12.5 11.375C10.2449 11.375 8.41669 9.61212 8.41669 7.4375C8.41669 5.26288 10.2449 3.5 12.5 3.5C14.7552 3.5 16.5834 5.26288 16.5834 7.4375Z"
      stroke="#111D4A"
      strokeWidth="1.5"
    />
  </svg>