  <svg
    width="25"
    height="25"
    viewBox="0 0 25 25"
    fill="none"
    xmlns="http://www.w3.org/2000/svg"
  >
    <path
      fillRule="evenodd"
      clipRule="evenodd"
      d="M10.9587 5.21321C11.976 5.00597 13.024 5.00597 14.0413 5.21321C17.447 5.90696 20.0666 8.58688 20.7726 11.9523C20.3627 11.7485 19.9016 11.634 19.4141 11.634C19.0532 11.634 18.6939 11.6845 18.3466 11.7841L18.078 11.8611C16.5326 12.304 15.3649 13.5899 15.0584 15.1863C14.8833 16.0982 14.8833 17.0358 15.0584 17.9477C15.3649 19.5442 16.5326 20.8301 18.078 21.273L18.3466 21.35C18.6939 21.4495 19.0532 21.5 19.4141 21.5C21.1184 21.5 22.5 20.1011 22.5 18.3754L22.5 13.4248L22.4757 13.066C22.1624 8.44133 18.8328 4.60026 14.3447 3.68603C13.1271 3.43799 11.8729 3.43799 10.6553 3.68603C6.16717 4.60026 2.83756 8.44133 2.5243 13.066L2.5 13.4248L2.50001 18.3754C2.5 20.1011 3.88158 21.5 5.58586 21.5C5.94684 21.5 6.30608 21.4495 6.65342 21.35L6.92199 21.273C8.46742 20.8301 9.63514 19.5442 9.94163 17.9477C10.1167 17.0358 10.1167 16.0982 9.94163 15.1863C9.63514 13.5899 8.46743 12.304 6.92199 11.8611L6.65342 11.7841C6.30609 11.6845 5.94684 11.634 5.58586 11.634C5.0984 11.634 4.63733 11.7485 4.22744 11.9523C4.9334 8.58687 7.55297 5.90696 10.9587 5.21321Z"
      fill="#414A6E"
      stroke="#111D4A"
      strokeWidth="1.5"
    />
  </svg>