  <svg
    width="19"
    height="20"
    viewBox="0 0 19 20"
    fill="none"
    xmlns="http://www.w3.org/2000/svg"
  >
    <path
      d="M1.13389 8.70322C1.71043 6.52447 3.47079 4.82847 5.66826 4.37155C8.04522 3.87731 10.4978 3.87731 12.8747 4.37155C15.0722 4.82847 16.8325 6.52447 17.4091 8.70322C17.888 10.513 17.8944 12.4414 17.4155 14.2511C16.83 16.464 15.0505 18.1547 12.8186 18.6188L12.6633 18.6511C10.4258 19.1163 8.11719 19.1163 5.87972 18.6511L5.72435 18.6188C3.4925 18.1547 1.71302 16.464 1.12746 14.2511C0.648558 12.4414 0.654993 10.513 1.13389 8.70322Z"
      fill="white"
    />
    <path
      d="M0.782946 10.9952V5.25212C0.782946 3.3599 2.06835 1.69319 3.88421 1.19064C4.33731 1.06524 4.81124 1 5.28122 1H6.13919C7.82042 1 9.79354 2.31117 10.5178 4.04481C9.3115 4.04503 6.85565 4.12466 5.66826 4.37155C3.47079 4.82847 1.71043 6.52447 1.13389 8.70322C0.935623 9.45248 0.818337 10.2221 0.782946 10.9952Z"
      fill="white"
    />
    <path
      d="M0.782946 11.9964V12.0138L0.783881 12.0164C0.783563 12.0097 0.783251 12.0031 0.782946 11.9964Z"
      fill="white"
    />
    <path
      d="M1.13389 8.70322C0.654993 10.513 0.648558 12.4414 1.12746 14.2511C1.71302 16.464 3.4925 18.1547 5.72435 18.6188L5.87972 18.6511C8.11719 19.1163 10.4258 19.1163 12.6633 18.6511L12.8186 18.6188C15.0505 18.1547 16.83 16.464 17.4155 14.2511C17.8944 12.4414 17.888 10.513 17.4091 8.70322C16.8325 6.52447 15.0722 4.82847 12.8747 4.37155C10.4978 3.87731 8.04522 3.87731 5.66826 4.37155M1.13389 8.70322C1.71043 6.52447 3.47079 4.82847 5.66826 4.37155M1.13389 8.70322C0.935623 9.45248 0.818337 10.2221 0.782946 10.9952V5.25212C0.782946 3.3599 2.06835 1.69319 3.88421 1.19064C4.33731 1.06524 4.81124 1 5.28122 1H6.13919C7.82042 1 9.79354 2.31117 10.5178 4.04481C9.3115 4.04503 6.85565 4.12466 5.66826 4.37155M11.8817 6.76913L11.9244 6.77627C13.7073 7.07479 15.014 8.62452 15.014 10.4404M0.782946 11.9964V12.0138L0.783881 12.0164C0.783563 12.0097 0.783251 12.0031 0.782946 11.9964Z"
      stroke="#494949"
      strokeWidth="1.5"
      strokeLinecap="round"
    />
  </svg>