  <svg
    width="25"
    height="25"
    viewBox="0 0 25 25"
    fill="none"
    xmlns="http://www.w3.org/2000/svg"
  >
    <path
      d="M3.5 18.933C3.5 16.9308 4.95485 15.2254 6.93204 14.9098L7.11013 14.8814C8.69336 14.6287 10.3066 14.6287 11.8899 14.8814L12.068 14.9098C14.0451 15.2254 15.5 16.9308 15.5 18.933C15.5 19.7984 14.7984 20.5 13.933 20.5H5.06697C4.20156 20.5 3.5 19.7984 3.5 18.933Z"
      fill="white"
    />
    <path
      d="M13 8C13 9.933 11.433 11.5 9.5 11.5C7.567 11.5 6 9.933 6 8C6 6.067 7.567 4.5 9.5 4.5C11.433 4.5 13 6.067 13 8Z"
      fill="white"
    />
    <path
      d="M3.5 18.933C3.5 16.9308 4.95485 15.2254 6.93204 14.9098L7.11013 14.8814C8.69336 14.6287 10.3066 14.6287 11.8899 14.8814L12.068 14.9098C14.0451 15.2254 15.5 16.9308 15.5 18.933C15.5 19.7984 14.7984 20.5 13.933 20.5H5.06697C4.20156 20.5 3.5 19.7984 3.5 18.933Z"
      stroke="#494949"
      strokeWidth="1.5"
    />
    <path
      d="M13 8C13 9.933 11.433 11.5 9.5 11.5C7.567 11.5 6 9.933 6 8C6 6.067 7.567 4.5 9.5 4.5C11.433 4.5 13 6.067 13 8Z"
      stroke="#494949"
      strokeWidth="1.5"
    />
    <path
      d="M15.5 11.5C17.433 11.5 19 9.933 19 8C19 6.067 17.433 4.5 15.5 4.5M17.8899 20.5H19.933C20.7984 20.5 21.5 19.7984 21.5 18.933C21.5 16.9308 20.0451 15.2254 18.068 14.9098V14.9098C17.9494 14.8909 17.8293 14.8814 17.7093 14.8814C17.3895 14.8814 17.2902 14.8814 16.7412 14.8814"
      stroke="#494949"
      strokeWidth="1.5"
      strokeLinecap="round"
    />
  </svg>