<svg width="25" height="24" viewBox="0 0 25 24" fill="none" xmlns="http://www.w3.org/2000/svg">
<path d="M3.85288 8.83297C4.50437 6.11037 6.67301 3.98455 9.45043 3.34591C11.4563 2.8847 13.5437 2.8847 15.5496 3.34591C18.327 3.98455 20.4956 6.11038 21.1471 8.83298C21.6176 10.7992 21.6176 12.8455 21.1471 14.8117C20.4956 17.5343 18.327 19.6602 15.5496 20.2988C13.5437 20.76 11.4563 20.76 9.45044 20.2988C6.67301 19.6602 4.50437 17.5343 3.85288 14.8117C3.38237 12.8455 3.38237 10.7992 3.85288 8.83297Z" fill="#0D0D0D"/>
<path d="M3.85288 14.8117L4.58229 14.6372L3.85288 14.8117ZM3.85288 8.83297L4.58229 9.00752L3.85288 8.83297ZM21.1471 8.83298L20.4177 9.00752L21.1471 8.83298ZM21.1471 14.8117L20.4177 14.6372L21.1471 14.8117ZM15.5496 20.2988L15.3815 19.5679L15.5496 20.2988ZM9.45044 20.2988L9.28237 21.0297L9.45044 20.2988ZM9.45043 3.34591L9.6185 4.07684L9.45043 3.34591ZM15.5496 3.34591L15.3815 4.07684L15.5496 3.34591ZM3.85288 14.8117L4.58229 14.6372C4.13924 12.7857 4.13924 10.859 4.58229 9.00752L3.85288 8.83297L3.12347 8.65843C2.62551 10.7394 2.62551 12.9053 3.12347 14.9863L3.85288 14.8117ZM21.1471 8.83298L20.4177 9.00752C20.8608 10.859 20.8608 12.7857 20.4177 14.6372L21.1471 14.8117L21.8765 14.9863C22.3745 12.9053 22.3745 10.7394 21.8765 8.65844L21.1471 8.83298ZM15.5496 20.2988L15.3815 19.5679C13.4863 20.0036 11.5137 20.0036 9.6185 19.5679L9.45044 20.2988L9.28237 21.0297C11.3988 21.5164 13.6012 21.5164 15.7176 21.0297L15.5496 20.2988ZM9.45043 3.34591L9.6185 4.07684C11.5137 3.64105 13.4863 3.64105 15.3815 4.07684L15.5496 3.34591L15.7176 2.61498C13.6012 2.12834 11.3988 2.12834 9.28237 2.61499L9.45043 3.34591ZM9.45044 20.2988L9.6185 19.5679C7.11229 18.9916 5.16599 17.0765 4.58229 14.6372L3.85288 14.8117L3.12347 14.9863C3.84276 17.9922 6.23374 20.3287 9.28237 21.0297L9.45044 20.2988ZM15.5496 20.2988L15.7176 21.0297C18.7663 20.3287 21.1572 17.9922 21.8765 14.9863L21.1471 14.8117L20.4177 14.6372C19.834 17.0765 17.8877 18.9916 15.3815 19.5679L15.5496 20.2988ZM15.5496 3.34591L15.3815 4.07684C17.8877 4.65311 19.834 6.56823 20.4177 9.00752L21.1471 8.83298L21.8765 8.65844C21.1572 5.65253 18.7663 3.31598 15.7176 2.61498L15.5496 3.34591ZM9.45043 3.34591L9.28237 2.61499C6.23373 3.31598 3.84276 5.65252 3.12347 8.65843L3.85288 8.83297L4.58229 9.00752C5.16599 6.56823 7.11228 4.65311 9.6185 4.07684L9.45043 3.34591ZM14.5805 21H15.3305C15.3305 19.5363 15.3322 18.5154 15.4378 17.7451C15.5403 16.998 15.7278 16.5993 16.0196 16.3132L15.4946 15.7776L14.9696 15.242C14.3474 15.852 14.0778 16.6223 13.9518 17.5413C13.8289 18.4372 13.8305 19.5795 13.8305 21H14.5805ZM20.8222 14.8816V14.1316C19.3718 14.1316 18.2101 14.13 17.2998 14.25C16.3695 14.3726 15.5897 14.6341 14.9696 15.242L15.4946 15.7776L16.0196 16.3132C16.3135 16.0251 16.7264 15.8385 17.4958 15.7371C18.2852 15.6331 19.3302 15.6316 20.8222 15.6316V14.8816Z" fill="#999999"/>
<path d="M9.5 9H12.5M9.5 12H14.5" stroke="#363853" stroke-width="1.5" stroke-linecap="round"/>
</svg>
