<svg width="25" height="25" viewBox="0 0 25 25" fill="none" xmlns="http://www.w3.org/2000/svg">
<path d="M8.68311 18.5H16.6831L16.2831 19.1857C14.4831 22.2714 10.8831 22.2714 9.08311 19.1857L8.68311 18.5Z" fill="white"/>
<path d="M16.6831 3.85196C15.8084 3.01769 14.6224 2.5 13.3029 2.5H11.5999C8.65552 2.5 6.37737 5.08064 6.74258 8.00234L6.82194 8.63719C6.96808 9.80631 6.54102 10.9741 5.67514 11.7731C4.49242 12.8645 4.16383 14.6016 4.86619 16.0496L4.96954 16.2627C5.63331 17.6311 7.02054 18.5 8.54144 18.5H16.7623C18.0656 18.5 19.2785 17.8342 19.9783 16.7347C20.9661 15.1826 20.7045 13.1465 19.3564 11.8945L19.3125 11.8538C19.0689 11.6275 18.8582 11.3738 18.6831 11.0999M8.68311 18.5L9.08311 19.1857C10.8831 22.2714 14.4831 22.2714 16.2831 19.1857L16.6831 18.5" stroke="#F9F9FB" stroke-width="1.5" stroke-linecap="round"/>
<path d="M19.6836 7.5C19.6836 8.60457 18.7882 9.5 17.6836 9.5C16.579 9.5 15.6836 8.60457 15.6836 7.5C15.6836 6.39543 16.579 5.5 17.6836 5.5C18.7882 5.5 19.6836 6.39543 19.6836 7.5Z" fill="#F9F9FB"/>
</svg>
