 <svg
    width="21"
    height="18"
    viewBox="0 0 21 18"
    fill="none"
    xmlns="http://www.w3.org/2000/svg"
  >
    <path
      d="M2.17888 5.65134C5.8091 -0.550446 14.7339 -0.550445 18.3641 5.65134C19.5739 7.71824 19.5739 10.2818 18.3641 12.3487C14.7339 18.5504 5.8091 18.5504 2.17888 12.3487C0.969018 10.2818 0.969018 7.71824 2.17888 5.65134Z"
      fill="white"
    />
    <path
      fillRule="evenodd"
      clipRule="evenodd"
      d="M13.8282 9.0607C13.8282 11.0561 12.2352 12.6733 10.2709 12.6733C8.30667 12.6733 6.7148 11.0561 6.7148 9.0607C6.7148 7.06413 8.30667 5.44699 10.2709 5.44699C12.2352 5.44699 13.8282 7.06413 13.8282 9.0607Z"
      fill="white"
    />
    <path
      d="M2.17888 5.65134C5.8091 -0.550446 14.7339 -0.550445 18.3641 5.65134C19.5739 7.71824 19.5739 10.2818 18.3641 12.3487C14.7339 18.5504 5.8091 18.5504 2.17888 12.3487C0.969018 10.2818 0.969018 7.71824 2.17888 5.65134Z"
      stroke="#494949"
      strokeWidth="1.5"
      strokeLinecap="round"
      strokeLinejoin="round"
    />
    <path
      fillRule="evenodd"
      clipRule="evenodd"
      d="M13.8282 9.0607C13.8282 11.0561 12.2352 12.6733 10.2709 12.6733C8.30667 12.6733 6.7148 11.0561 6.7148 9.0607C6.7148 7.06413 8.30667 5.44699 10.2709 5.44699C12.2352 5.44699 13.8282 7.06413 13.8282 9.0607Z"
      stroke="#494949"
      strokeWidth="1.5"
      strokeLinecap="round"
      strokeLinejoin="round"
    />
  </svg>