  <svg
    width="19"
    height="18"
    viewBox="0 0 19 18"
    fill="none"
    xmlns="http://www.w3.org/2000/svg"
  >
    <path
      d="M18.0687 8.78209C18.3391 8.50996 18.3391 8.06873 18.0687 7.7966L12.3379 2.02821C11.7515 1.43789 11.2625 0.945636 10.8221 0.607406C10.3572 0.250401 9.86607 0 9.27148 0C8.6769 0 8.18575 0.250401 7.72089 0.607407C7.28047 0.94564 6.79146 1.43789 6.20503 2.02821L0.474257 7.7966C0.203894 8.06873 0.203894 8.50996 0.474257 8.78209C0.74462 9.05423 1.18296 9.05423 1.45333 8.78209L1.84994 8.38288V11.4332C1.84994 14.4273 3.89742 17.0276 6.79344 17.7114C8.42334 18.0962 10.1196 18.0962 11.7495 17.7114C14.6455 17.0276 16.693 14.4273 16.693 11.4332V8.38286L17.0896 8.78209C17.36 9.05423 17.7983 9.05423 18.0687 8.78209Z"
      fill="#111D4A"
    />
    </svg>