<svg width="25" height="25" viewBox="0 0 25 25" fill="none" xmlns="http://www.w3.org/2000/svg">
<path d="M5.80769 8.38571C5.80769 6.23969 7.56411 4.5 9.73077 4.5C11.8974 4.5 13.6538 6.23969 13.6538 8.38571C13.6538 10.5317 11.8974 12.2714 9.73077 12.2714C7.56411 12.2714 5.80769 10.5317 5.80769 8.38571Z" fill="#414A6E"/>
<path d="M7.25123 14.0261L7.41563 14.0001C8.94935 13.7577 10.5122 13.7577 12.0459 14.0001L12.2103 14.0261C14.3714 14.3677 15.9615 16.214 15.9615 18.3816C15.9615 19.5516 15.004 20.5 13.8228 20.5H5.63874C4.45755 20.5 3.5 19.5516 3.5 18.3816C3.5 16.214 5.09016 14.3677 7.25123 14.0261Z" fill="#414A6E"/>
<path d="M15.2692 4.5C14.8869 4.5 14.5769 4.807 14.5769 5.18571C14.5769 5.56442 14.8869 5.87143 15.2692 5.87143C16.6712 5.87143 17.8077 6.99711 17.8077 8.38571C17.8077 9.77432 16.6712 10.9 15.2692 10.9C14.8869 10.9 14.5769 11.207 14.5769 11.5857C14.5769 11.9644 14.8869 12.2714 15.2692 12.2714C17.4359 12.2714 19.1923 10.5317 19.1923 8.38571C19.1923 6.23969 17.4359 4.5 15.2692 4.5Z" fill="#414A6E"/>
<path d="M16.4149 13.9916C16.0326 13.9916 15.7226 14.2986 15.7226 14.6773C15.7226 15.056 16.0326 15.363 16.4149 15.363H17.3086C17.3829 15.363 17.4573 15.3688 17.5306 15.3804C19.0197 15.6158 20.1154 16.888 20.1154 18.3816C20.1154 18.7942 19.7778 19.1286 19.3613 19.1286H17.4753C17.0929 19.1286 16.783 19.4356 16.783 19.8143C16.783 20.193 17.0929 20.5 17.4753 20.5H19.3613C20.5425 20.5 21.5 19.5516 21.5 18.3816C21.5 16.214 19.9098 14.3677 17.7488 14.0261C17.6032 14.0031 17.4559 13.9916 17.3086 13.9916H16.4149Z" fill="#414A6E"/>
<path d="M5.80769 8.38571C5.80769 6.23969 7.56411 4.5 9.73077 4.5C11.8974 4.5 13.6538 6.23969 13.6538 8.38571C13.6538 10.5317 11.8974 12.2714 9.73077 12.2714C7.56411 12.2714 5.80769 10.5317 5.80769 8.38571Z" stroke="#111D4A" stroke-width="1.5" stroke-linecap="round"/>
<path d="M7.25123 14.0261L7.41563 14.0001C8.94935 13.7577 10.5122 13.7577 12.0459 14.0001L12.2103 14.0261C14.3714 14.3677 15.9615 16.214 15.9615 18.3816C15.9615 19.5516 15.004 20.5 13.8228 20.5H5.63874C4.45755 20.5 3.5 19.5516 3.5 18.3816C3.5 16.214 5.09016 14.3677 7.25123 14.0261Z" stroke="#111D4A" stroke-width="1.5" stroke-linecap="round"/>
<path d="M15.2692 4.5C14.8869 4.5 14.5769 4.807 14.5769 5.18571C14.5769 5.56442 14.8869 5.87143 15.2692 5.87143C16.6712 5.87143 17.8077 6.99711 17.8077 8.38571C17.8077 9.77432 16.6712 10.9 15.2692 10.9C14.8869 10.9 14.5769 11.207 14.5769 11.5857C14.5769 11.9644 14.8869 12.2714 15.2692 12.2714C17.4359 12.2714 19.1923 10.5317 19.1923 8.38571C19.1923 6.23969 17.4359 4.5 15.2692 4.5Z" stroke="#111D4A" stroke-width="1.5" stroke-linecap="round"/>
<path d="M16.4149 13.9916C16.0326 13.9916 15.7226 14.2986 15.7226 14.6773C15.7226 15.056 16.0326 15.363 16.4149 15.363H17.3086C17.3829 15.363 17.4573 15.3688 17.5306 15.3804C19.0197 15.6158 20.1154 16.888 20.1154 18.3816C20.1154 18.7942 19.7778 19.1286 19.3613 19.1286H17.4753C17.0929 19.1286 16.783 19.4356 16.783 19.8143C16.783 20.193 17.0929 20.5 17.4753 20.5H19.3613C20.5425 20.5 21.5 19.5516 21.5 18.3816C21.5 16.214 19.9098 14.3677 17.7488 14.0261C17.6032 14.0031 17.4559 13.9916 17.3086 13.9916H16.4149Z" stroke="#111D4A" stroke-width="1.5" stroke-linecap="round"/>
</svg>
