 <svg width="23" height="20" viewBox="0 0 23 20" fill="none" xmlns="http://www.w3.org/2000/svg">
    <path d="M21.2715 16.432C21.2715 17.8503 20.1479 19 18.7618 19C18.4475 19 18.1347 18.9556 17.8322 18.868L17.5413 18.7837C16.1696 18.3864 15.1331 17.2331 14.8611 15.8012C14.6918 14.9103 14.6918 13.9944 14.8611 13.1035C15.1331 11.6716 16.1696 10.5182 17.5413 10.121L17.8322 10.0367C18.1347 9.94912 18.4475 9.90469 18.7618 9.90469C20.1479 9.90469 21.2715 11.0544 21.2715 12.4727V16.432Z" fill="white" />
    <path d="M1.27149 16.432C1.27148 17.8503 2.39511 19 3.78117 19C4.09548 19 4.40829 18.9556 4.71073 18.868L5.00169 18.7837C6.3734 18.3864 7.40986 17.2331 7.68189 15.8012C7.85114 14.9103 7.85114 13.9944 7.68189 13.1035C7.40986 11.6716 6.3734 10.5182 5.00169 10.121L4.71073 10.0367C4.40829 9.94911 4.09548 9.90469 3.78117 9.90469C2.39511 9.90469 1.27148 11.0544 1.27149 12.4727L1.27149 16.432Z" fill="white" />
    <path d="M1.27148 15.0208L1.27148 11.0416L1.29586 10.6779C1.60952 5.99852 4.94345 2.11197 9.43738 1.1869C10.648 0.9377 11.895 0.937699 13.1056 1.1869C17.5995 2.11197 20.9334 5.99852 21.2471 10.6779L21.2715 11.0416V15.0208M14.8611 15.8012C14.6918 14.9103 14.6918 13.9944 14.8611 13.1035C15.1331 11.6716 16.1696 10.5182 17.5413 10.121L17.8322 10.0367C18.1347 9.94912 18.4475 9.90469 18.7618 9.90469C20.1479 9.90469 21.2715 11.0544 21.2715 12.4727V16.432C21.2715 17.8503 20.1479 19 18.7618 19C18.4475 19 18.1347 18.9556 17.8322 18.868L17.5413 18.7837C16.1696 18.3864 15.1331 17.2331 14.8611 15.8012ZM7.68189 15.8012C7.85114 14.9103 7.85114 13.9944 7.68189 13.1035C7.40986 11.6716 6.3734 10.5182 5.00169 10.121L4.71073 10.0367C4.40829 9.94911 4.09548 9.90469 3.78117 9.90469C2.39511 9.90469 1.27148 11.0544 1.27149 12.4727L1.27149 16.432C1.27148 17.8503 2.39511 19 3.78117 19C4.09548 19 4.40829 18.9556 4.71073 18.868L5.00169 18.7837C6.3734 18.3864 7.40986 17.2331 7.68189 15.8012Z" stroke="#494949" strokeWidth="1.5" />
  </svg>