 <svg
    width="17"
    height="21"
    viewBox="0 0 17 21"
    fill="none"
    xmlns="http://www.w3.org/2000/svg"
  >
    <path
      d="M1.5 17.6115C1.5 15.1984 3.19732 13.143 5.50404 12.7627L5.71182 12.7284C7.55892 12.4239 9.44108 12.4239 11.2882 12.7284L11.496 12.7627C13.8027 13.143 15.5 15.1984 15.5 17.6115C15.5 18.6545 14.6815 19.5 13.6719 19.5H3.32813C2.31848 19.5 1.5 18.6545 1.5 17.6115Z"
      fill="white"
    />
    <path
      d="M12.5834 5.4375C12.5834 7.61212 10.7552 9.375 8.50002 9.375C6.24486 9.375 4.41669 7.61212 4.41669 5.4375C4.41669 3.26288 6.24486 1.5 8.50002 1.5C10.7552 1.5 12.5834 3.26288 12.5834 5.4375Z"
      fill="white"
    />
    <path
      d="M1.5 17.6115C1.5 15.1984 3.19732 13.143 5.50404 12.7627L5.71182 12.7284C7.55892 12.4239 9.44108 12.4239 11.2882 12.7284L11.496 12.7627C13.8027 13.143 15.5 15.1984 15.5 17.6115C15.5 18.6545 14.6815 19.5 13.6719 19.5H3.32813C2.31848 19.5 1.5 18.6545 1.5 17.6115Z"
      stroke="#494949"
      strokeWidth="1.5"
    />
    <path
      d="M12.5834 5.4375C12.5834 7.61212 10.7552 9.375 8.50002 9.375C6.24486 9.375 4.41669 7.61212 4.41669 5.4375C4.41669 3.26288 6.24486 1.5 8.50002 1.5C10.7552 1.5 12.5834 3.26288 12.5834 5.4375Z"
      stroke="#494949"
      strokeWidth="1.5"
    />
  </svg>